<svg width="24" height="25" viewBox="0 0 24 25" fill="none" xmlns="http://www.w3.org/2000/svg">
<path d="M10.7642 0.551758C7.22916 0.551758 5.76416 2.90996 5.76416 5.75176C5.76416 6.70856 6.20361 7.6696 6.20361 7.6696C6.02695 7.77533 5.7364 8.11096 5.80973 8.70723C5.9464 9.81916 6.40992 10.1023 6.70492 10.1257C6.81742 11.1631 7.88916 12.4901 8.26416 12.6834V14.4167C7.43083 17.0167 0.76416 15.2834 0.76416 21.3501H10.367C10.0895 20.5354 9.93083 19.6635 9.93083 18.7501C9.93083 15.6829 11.6371 13.0374 14.1121 11.7626C14.453 11.2686 14.7651 10.6604 14.8234 10.1257C15.1184 10.1023 15.5819 9.81916 15.7186 8.70723C15.7919 8.11009 15.5014 7.77533 15.3247 7.6696C15.3247 7.6696 15.7642 6.80129 15.7642 5.75176C15.7642 3.64749 14.97 1.85176 13.2642 1.85176C13.2642 1.85176 12.6717 0.551758 10.7642 0.551758ZM17.4308 12.6834C14.2092 12.6834 11.5975 15.3995 11.5975 18.7501C11.5975 22.1006 14.2092 24.8167 17.4308 24.8167C20.6525 24.8167 23.2642 22.1006 23.2642 18.7501C23.2642 15.3995 20.6525 12.6834 17.4308 12.6834ZM17.4308 15.2834C17.8908 15.2834 18.2642 15.6708 18.2642 16.1501V17.8834H19.9308C20.3908 17.8834 20.7642 18.2708 20.7642 18.7501C20.7642 19.2293 20.3908 19.6167 19.9308 19.6167H18.2642V21.3501C18.2642 21.8293 17.8908 22.2167 17.4308 22.2167C16.9708 22.2167 16.5975 21.8293 16.5975 21.3501V19.6167H14.9308C14.4708 19.6167 14.0975 19.2293 14.0975 18.7501C14.0975 18.2708 14.4708 17.8834 14.9308 17.8834H16.5975V16.1501C16.5975 15.6708 16.9708 15.2834 17.4308 15.2834Z" fill="white"/>
</svg>
