<svg width="21" height="21" viewBox="0 0 21 21" fill="none" xmlns="http://www.w3.org/2000/svg">
<path d="M7.35392 10.0238C4.7282 10.0238 2.59201 7.88762 2.59201 5.2619C2.59201 2.63619 4.7282 0.5 7.35392 0.5C9.97963 0.5 12.1158 2.63619 12.1158 5.2619C12.1158 7.88762 9.97963 10.0238 7.35392 10.0238ZM19.7849 13.8895L20.2111 13.4795C20.0201 12.9333 19.7439 12.4295 19.3987 11.9848L18.8253 12.1543C17.7801 12.4633 16.6896 11.8338 16.4339 10.7743L16.2696 10.0924C16.0025 10.0471 15.7287 10.0238 15.4492 10.0238C15.1696 10.0238 14.8958 10.0471 14.6287 10.0924L14.4644 10.7743C14.2087 11.8338 13.1182 12.4633 12.073 12.1543L11.4996 11.9848C11.1549 12.429 10.8782 12.9333 10.6873 13.4795L11.1134 13.8895C11.892 14.639 11.892 15.8852 11.1134 16.6348L10.6873 17.0443C10.8782 17.5905 11.1544 18.0943 11.4996 18.539L12.073 18.3695C13.1182 18.0605 14.2087 18.69 14.4644 19.7495L14.6287 20.4314C14.8958 20.4767 15.1701 20.5 15.4492 20.5C15.7287 20.5 16.0025 20.4767 16.2696 20.4314L16.4339 19.7495C16.6896 18.69 17.7801 18.0605 18.8253 18.3695L19.3987 18.539C19.7434 18.0948 20.0201 17.5905 20.2111 17.0443L19.7849 16.6343C19.0063 15.8852 19.0063 14.6386 19.7849 13.8895ZM15.4492 16.6905C14.6601 16.6905 14.0206 16.051 14.0206 15.2619C14.0206 14.4729 14.6601 13.8333 15.4492 13.8333C16.2382 13.8333 16.8777 14.4729 16.8777 15.2619C16.8777 16.051 16.2382 16.6905 15.4492 16.6905ZM9.25868 15.2619C9.25868 14.0333 9.62106 12.8914 10.2382 11.9286H1.98344C1.0063 11.9286 0.21106 12.7786 0.21106 13.8233V14.5476C0.21106 16.11 1.01868 17.4676 2.48535 18.37C3.71915 19.1295 5.36344 19.5476 7.11582 19.5476C8.33011 19.5476 9.4882 19.3429 10.4982 18.9667C9.72344 17.9329 9.25868 16.6533 9.25868 15.2619Z" fill="white"/>
</svg>
