<svg width="19" height="19" viewBox="0 0 19 19" fill="none" xmlns="http://www.w3.org/2000/svg">
<path d="M9.5343 0.5C4.56405 0.5 0.534302 4.52975 0.534302 9.5C0.534302 14.4702 4.56405 18.5 9.5343 18.5C14.5046 18.5 18.5343 14.4702 18.5343 9.5C18.5343 4.52975 14.5046 0.5 9.5343 0.5ZM13.2843 10.25H10.2843V13.25C10.2843 13.6647 9.9483 14 9.5343 14C9.1203 14 8.7843 13.6647 8.7843 13.25V10.25H5.7843C5.3703 10.25 5.0343 9.91475 5.0343 9.5C5.0343 9.08525 5.3703 8.75 5.7843 8.75H8.7843V5.75C8.7843 5.33525 9.1203 5 9.5343 5C9.9483 5 10.2843 5.33525 10.2843 5.75V8.75H13.2843C13.6983 8.75 14.0343 9.08525 14.0343 9.5C14.0343 9.91475 13.6983 10.25 13.2843 10.25Z" fill="white"/>
</svg>
