<svg width="22" height="22" viewBox="0 0 22 22" fill="none" xmlns="http://www.w3.org/2000/svg">
<path d="M11.0198 0.25C5.27635 0.25 0.619751 4.9066 0.619751 10.65C0.619751 16.3934 5.27635 21.05 11.0198 21.05C16.7632 21.05 21.4198 16.3934 21.4198 10.65C21.4198 4.9066 16.7632 0.25 11.0198 0.25ZM16.8325 8.66273L10.2805 15.2147C10.1176 15.3777 9.89742 15.4687 9.66775 15.4687C9.43808 15.4687 9.21708 15.3777 9.05502 15.2147L6.06242 12.2221C5.72355 11.8833 5.72355 11.3355 6.06242 10.9967C6.40128 10.6578 6.94902 10.6578 7.28789 10.9967L9.66775 13.3765L15.607 7.43727C15.9459 7.0984 16.4936 7.0984 16.8325 7.43727C17.1714 7.77613 17.1714 8.32387 16.8325 8.66273Z" fill="white"/>
</svg>
