<svg width="74" height="75" viewBox="0 0 74 75" fill="none" xmlns="http://www.w3.org/2000/svg">
<path fill-rule="evenodd" clip-rule="evenodd" d="M36.5242 0.337763C35.7239 0.630972 35.3515 1.17147 34.9827 2.57621C34.4164 4.73257 33.9005 6.67428 33.4707 8.26729C32.7696 10.8671 32.3068 12.6176 32.1462 13.278C32.0656 13.6095 31.5629 15.4851 31.0293 17.4461C30.4954 19.4074 29.8772 21.6793 29.6551 22.4949C29.4331 23.3103 29.09 24.5729 28.8928 25.3002C28.2115 27.8126 28.1315 27.9019 26.0166 28.5141C25.4435 28.6801 24.2171 29.0375 23.2913 29.3087C22.3656 29.5797 21.2474 29.9028 20.8064 30.0269C20.3657 30.1507 19.437 30.4188 18.7427 30.6223C17.1545 31.0879 14.6453 31.8169 10.9876 32.8748C10.1279 33.1236 8.88334 33.4845 8.22212 33.6769C5.99094 34.3263 4.54028 34.7473 3.4329 35.0665C1.56621 35.6049 0.961506 36.1724 0.946336 37.4003C0.930335 38.7043 1.57161 39.356 3.34853 39.8416C3.7365 39.9478 4.61322 40.1978 5.29647 40.3973C5.97972 40.5968 7.09791 40.922 7.78137 41.1202C8.46462 41.3183 9.45646 41.6063 9.98553 41.7602C12.9781 42.6303 14.196 42.9838 15.2758 43.2955C15.937 43.4865 17.0552 43.8108 17.7607 44.0166C18.4659 44.2221 19.5841 44.5467 20.2454 44.7381C29.1096 47.3025 28.1774 46.8327 28.7769 49.0379C28.9489 49.6707 29.6738 52.3887 30.3876 55.0779C31.1016 57.767 31.7135 59.9976 31.7478 60.0344C32.019 60.328 38.6824 56.0219 42.0847 53.3544C44.2949 51.6217 45.4455 50.6189 45.5287 50.3531C45.5706 50.2184 45.7373 49.6214 45.8988 49.0263C46.4467 47.0075 46.3815 47.0569 49.8628 46.0243L50.544 45.8224L51.4311 44.8794C55.0177 41.0666 58.1726 37.0361 60.5526 33.2258C61.2088 32.1754 61.2215 32.2647 60.3832 32.0176C59.9973 31.904 59.0506 31.6226 58.279 31.3924C57.5076 31.1621 56.5337 30.8733 56.1149 30.7507C55.696 30.6281 54.109 30.1597 52.5881 29.7098C51.067 29.2599 49.3433 28.7508 48.7573 28.5785C46.5186 27.9204 46.3977 27.7993 45.8225 25.6408C45.6199 24.8805 45.2893 23.6359 45.0879 22.8756C44.8863 22.115 44.6002 21.0419 44.4522 20.4908C43.6713 17.5833 42.4941 13.044 41.7292 9.9906C41.6132 9.52761 41.2697 8.17503 40.9661 6.98474C40.6623 5.79444 40.232 4.10771 40.0098 3.2364C39.5645 1.49024 39.4783 1.27287 39.0562 0.832333C38.5184 0.271059 37.3363 0.0401903 36.5242 0.337763ZM57.3973 4.03C53.4588 4.32113 48.2665 5.81606 43.5907 8.00504C43.2048 8.18563 42.8889 8.37265 42.8885 8.42065C42.8875 8.57422 43.8689 12.4331 43.925 12.4952C43.9548 12.5283 44.5726 12.2814 45.2978 11.9466C55.1694 7.3912 63.6372 7.09632 66.6341 11.2037C66.8579 11.5105 67.0805 11.7447 67.1287 11.7241C68.6947 11.0552 69.5782 10.9085 70.8184 11.1115C71.415 11.2091 71.4021 11.2844 70.9493 10.3391C68.7788 5.80941 63.921 3.54789 57.3973 4.03ZM68.8806 12.7594C65.7994 13.5891 64.8354 17.4763 67.1763 19.6314C69.5481 21.815 73.3846 20.4277 73.8473 17.219C74.2503 14.4257 71.5839 12.0312 68.8806 12.7594ZM28.7819 17.2655C24.1618 21.0006 18.3338 26.6291 15.9546 29.6537C15.7074 29.9679 15.6783 29.9712 17.3197 29.4949C18.1353 29.2582 19.4158 28.8867 20.1653 28.6693C20.9147 28.4518 21.9543 28.1496 22.4753 27.9977L23.4229 27.7215L24.4791 26.6902C25.0603 26.1231 26.0489 25.1942 26.6762 24.6261C27.3036 24.0582 27.8341 23.5356 27.8553 23.4649C27.8763 23.3943 28.2052 22.1821 28.5859 20.7714C28.9666 19.3608 29.3774 17.8549 29.4988 17.4249C29.766 16.479 29.7573 16.4771 28.7819 17.2655ZM67.2947 22.034C66.8579 24.1178 64.8669 28.7483 63.0472 31.9131C62.1614 33.4533 62.0718 33.6028 61.4827 34.5181C51.7328 49.6711 34.6386 62.8775 20.7576 65.9806C14.5472 67.369 9.86147 66.4692 7.88049 63.5074C5.44588 59.8671 6.42567 53.0173 10.5237 45.0273C11.1924 43.724 11.2136 43.6282 10.8537 43.5419C10.7288 43.512 9.8783 43.2691 8.96335 43.0021C8.0486 42.735 7.25002 42.5358 7.18913 42.5592C7.02642 42.6216 5.81847 45.1136 5.08368 46.9021C-2.19231 64.6146 6.19064 74.7181 23.9326 69.6199C43.4105 64.0227 65.7075 42.3523 71.0597 23.8173C71.5704 22.0485 71.5686 22.0606 71.3094 22.1256C70.2696 22.3866 68.9419 22.3245 68.0021 21.9708C67.3446 21.7233 67.3602 21.7219 67.2947 22.034ZM67.654 35.2195C66.6351 36.9795 65.0484 39.4231 63.7895 41.1709C63.4562 41.6339 63.1946 42.0242 63.2081 42.0381C63.2218 42.0522 63.6243 41.9479 64.1024 41.8066C64.5808 41.6653 65.3688 41.4332 65.8538 41.2908C66.3386 41.1485 67.3666 40.8428 68.1382 40.6117C68.9095 40.3806 70.0175 40.054 70.6002 39.8861C72.5851 39.314 73.0982 38.8132 73.1026 37.4438C73.1065 36.1853 72.5317 35.5902 70.856 35.1168C70.4412 34.9996 69.7083 34.781 69.2271 34.6308C68.7458 34.4805 68.3073 34.3577 68.2525 34.3577C68.1976 34.3577 67.9285 34.7455 67.654 35.2195ZM41.2461 62.8638C38.8987 64.4207 36.0944 66.085 34.2888 66.9929C33.7429 67.2674 33.66 67.3361 33.6929 67.487C33.7138 67.5834 33.9007 68.2935 34.1078 69.0651C34.315 69.8364 34.6448 71.0797 34.8408 71.8278C35.5176 74.4118 36.4672 75.2141 38.1134 74.5928C39.152 74.2009 39.2385 74.0301 40.1644 70.5477C40.434 69.5339 40.776 68.2534 40.9244 67.7023C41.073 67.1512 41.4165 65.8526 41.6878 64.8167C41.9594 63.7806 42.2306 62.7618 42.2907 62.5523C42.4303 62.0648 42.4677 62.0536 41.2461 62.8638Z" fill="white"/>
</svg>
