<svg width="18" height="19" viewBox="0 0 18 19" fill="none" xmlns="http://www.w3.org/2000/svg">
<path d="M7.30853 0.5C6.87743 0.5 6.50891 0.804734 6.42611 1.22773L6.12552 2.77109C5.38684 3.05042 4.70381 3.44066 4.10404 3.93301L2.62396 3.42324C2.21626 3.28284 1.7677 3.45142 1.5517 3.82402L0.194664 6.17598C-0.0204363 6.54948 0.0578496 7.02365 0.38275 7.30625L1.56927 8.33809C1.50757 8.7173 1.46732 9.10336 1.46732 9.5C1.46732 9.89664 1.50757 10.2827 1.56927 10.6619L0.38275 11.6937C0.0578496 11.9763 -0.0204363 12.4505 0.194664 12.824L1.5517 15.176C1.7668 15.5495 2.21626 15.718 2.62396 15.5785L4.10404 15.0687C4.70362 15.5608 5.38717 15.9497 6.12552 16.2289L6.42611 17.7723C6.50891 18.1953 6.87743 18.5 7.30853 18.5H10.0261C10.4572 18.5 10.8257 18.1953 10.9085 17.7723L11.2091 16.2289C11.9478 15.9496 12.6308 15.5593 13.2306 15.067L14.7107 15.5768C15.1184 15.7172 15.5669 15.5495 15.7829 15.176L17.14 12.8223C17.3551 12.4488 17.2768 11.9763 16.9519 11.6937L15.7654 10.6619C15.8271 10.2827 15.8673 9.89664 15.8673 9.5C15.8673 9.10336 15.8271 8.7173 15.7654 8.33809L16.9519 7.30625C17.2768 7.02365 17.3551 6.54948 17.14 6.17598L15.7829 3.82402C15.5678 3.45052 15.1184 3.28198 14.7107 3.42148L13.2306 3.93125C12.631 3.43921 11.9475 3.05029 11.2091 2.77109L10.9085 1.22773C10.8257 0.804734 10.4572 0.5 10.0261 0.5H7.30853ZM8.66732 5.9C10.6554 5.9 12.2673 7.5119 12.2673 9.5C12.2673 11.4881 10.6554 13.1 8.66732 13.1C6.67922 13.1 5.06732 11.4881 5.06732 9.5C5.06732 7.5119 6.67922 5.9 8.66732 5.9Z" fill="white"/>
</svg>
