<svg width="40" height="41" viewBox="0 0 40 41" fill="none" xmlns="http://www.w3.org/2000/svg">
<g clip-path="url(#clip0_64_104)">
<path d="M12.6787 11.1957C12.6787 9.48306 14.0675 8.09424 15.7801 8.09424C17.4928 8.09424 18.8816 9.48306 18.8816 11.1957C18.8816 11.2707 18.8816 11.5641 18.8816 11.6386C18.8816 13.3512 17.5523 15.1829 15.7801 15.1829C14.008 15.1829 12.6787 13.3512 12.6787 11.6386C12.6787 11.5641 12.6787 11.2707 12.6787 11.1957ZM21.983 11.2403C21.983 9.52773 23.3719 8.1389 25.0845 8.1389C26.7971 8.1389 28.1859 9.52773 28.1859 11.2403C28.1859 11.3154 28.1859 11.6088 28.1859 11.6832C28.1859 13.3958 26.8566 15.2276 25.0845 15.2276C23.3123 15.2276 21.983 13.3958 21.983 11.6832C21.983 11.6088 21.983 11.3154 21.983 11.2403ZM20.1315 32.2855C17.3668 32.2855 14.9099 30.9897 13.3195 28.9769L13.5763 27.6668C13.6941 27.0645 14.1246 26.5757 14.7064 26.3803C15.8298 26.0032 17.8401 25.4623 20.1333 25.4623C22.4278 25.4623 24.4394 26.0038 25.5621 26.381C26.1427 26.5763 26.5725 27.0658 26.6898 27.6668L26.9453 28.9744C25.3549 30.9885 22.8967 32.2855 20.1315 32.2855ZM17.0207 20.5C17.0207 18.7874 18.4095 17.3986 20.1222 17.3986C21.8348 17.3986 23.2236 18.7874 23.2236 20.5C23.2236 20.5751 23.2236 20.8685 23.2236 20.9429C23.2236 22.6555 21.8943 24.4872 20.1222 24.4872C18.35 24.4872 17.0207 22.6555 17.0207 20.9429C17.0207 20.8685 17.0207 20.5751 17.0207 20.5ZM38.7854 24.2552C38.6682 23.6542 38.2383 23.1648 37.6577 22.9694C36.535 22.5922 34.5234 22.0507 32.229 22.0507C29.9357 22.0507 27.9254 22.5916 26.8021 22.9688C26.2202 23.1641 25.7897 23.6529 25.6719 24.2552L25.6334 24.4519C25.817 24.5077 25.9938 24.5629 26.1557 24.6175C27.3671 25.025 28.2715 26.0572 28.5159 27.3102L28.6697 28.0985C29.7559 28.5898 30.9561 28.8739 32.2265 28.8739C34.9917 28.8739 37.4499 27.5769 39.0403 25.5628L38.7854 24.2552ZM11.7501 27.3095C11.9958 26.0553 12.9014 25.0238 14.1141 24.6162C14.2697 24.5641 14.4378 24.5108 14.6134 24.4574L14.5737 24.2552C14.4565 23.6542 14.0266 23.1648 13.446 22.9694C12.3233 22.5922 10.3117 22.0507 8.01724 22.0507C5.72341 22.0507 3.71306 22.5916 2.59033 22.9688C2.0085 23.1641 1.57802 23.6529 1.46017 24.2552L1.20337 25.5653C2.79379 27.5781 5.25075 28.8739 8.01538 28.8739C9.29565 28.8739 10.5046 28.5855 11.5975 28.0874L11.7501 27.3095ZM4.9251 17.0884C4.9251 15.3758 6.31393 13.987 8.02654 13.987C9.73916 13.987 11.128 15.3758 11.128 17.0884C11.128 17.1635 11.128 17.4569 11.128 17.5313C11.128 19.2439 9.79871 21.0756 8.02654 21.0756C6.25438 21.0756 4.9251 19.2439 4.9251 17.5313C4.9251 17.4569 4.9251 17.1635 4.9251 17.0884ZM17.0251 16.6368C16.4612 16.8924 15.8378 17.0438 15.1599 17.0438C14.3367 17.0438 13.5918 16.8229 12.9405 16.457C12.9684 16.6641 12.9888 16.8738 12.9888 17.0884V17.5313C12.9888 18.6106 12.6433 19.7191 12.0336 20.6507C12.8059 20.8232 13.4882 21.0204 14.0396 21.2059C14.4961 21.3597 14.9086 21.6016 15.2591 21.9112C15.1965 21.5899 15.1599 21.2661 15.1599 20.9429V20.5C15.1599 18.9369 15.8912 17.5462 17.0251 16.6368ZM29.1163 17.0884C29.1163 15.3758 30.5052 13.987 32.2178 13.987C33.9304 13.987 35.3192 15.3758 35.3192 17.0884C35.3192 17.1635 35.3192 17.4569 35.3192 17.5313C35.3192 19.2439 33.99 21.0756 32.2178 21.0756C30.4456 21.0756 29.1163 19.2439 29.1163 17.5313C29.1163 17.4569 29.1163 17.1635 29.1163 17.0884ZM27.2555 17.0884C27.2555 16.8899 27.2735 16.6964 27.2983 16.5047C26.6476 16.8688 25.9051 17.0884 25.0845 17.0884C24.4536 17.0884 23.8699 16.9563 23.3371 16.7324C24.4034 17.6423 25.0845 18.9915 25.0845 20.5V20.9429C25.0845 21.2667 25.0485 21.5917 24.9852 21.9136C25.3369 21.6029 25.7513 21.3585 26.2097 21.2047C26.7599 21.0198 27.4403 20.8232 28.2107 20.6514C27.601 19.7197 27.2555 18.6112 27.2555 17.5313V17.0884Z" fill="white"/>
</g>
<defs>
<clipPath id="clip0_64_104">
<rect width="39.6985" height="39.6985" fill="white" transform="translate(0.272949 0.650757)"/>
</clipPath>
</defs>
</svg>
