<svg width="26" height="31" viewBox="0 0 26 31" fill="none" xmlns="http://www.w3.org/2000/svg">
<path d="M13.2039 0.141602C10.112 0.141602 7.66003 1.10164 6.10054 2.84593C4.54104 4.59022 3.97313 6.87988 3.97313 9.2642V10.5262H7.43467V9.2642C7.43467 7.42526 7.84934 6.05957 8.66063 5.15362C9.47193 4.24767 10.779 3.60314 13.2039 3.60314C15.6333 3.60314 16.9404 4.22063 17.7472 5.11756C18.554 6.0145 18.9731 7.40723 18.9731 9.2642V10.5262H22.4347V9.2642C22.4347 6.86636 21.8713 4.54965 20.3073 2.80987C18.7433 1.07009 16.2913 0.141602 13.2039 0.141602ZM3.97313 11.6801C2.06208 11.6801 0.511597 13.2305 0.511597 15.1416V26.6801C0.511597 28.5911 2.06208 30.1416 3.97313 30.1416H22.4347C24.3457 30.1416 25.8962 28.5911 25.8962 26.6801V15.1416C25.8962 13.2305 24.3457 11.6801 22.4347 11.6801H3.97313ZM6.28083 18.6031C7.55637 18.6031 8.58852 19.6353 8.58852 20.9108C8.58852 22.1864 7.55637 23.2185 6.28083 23.2185C5.00529 23.2185 3.97313 22.1864 3.97313 20.9108C3.97313 19.6353 5.00529 18.6031 6.28083 18.6031ZM13.2039 18.6031C14.4794 18.6031 15.5116 19.6353 15.5116 20.9108C15.5116 22.1864 14.4794 23.2185 13.2039 23.2185C11.9284 23.2185 10.8962 22.1864 10.8962 20.9108C10.8962 19.6353 11.9284 18.6031 13.2039 18.6031ZM20.127 18.6031C21.4025 18.6031 22.4347 19.6353 22.4347 20.9108C22.4347 22.1864 21.4025 23.2185 20.127 23.2185C18.8514 23.2185 17.8193 22.1864 17.8193 20.9108C17.8193 19.6353 18.8514 18.6031 20.127 18.6031Z" fill="white"/>
</svg>
