<svg width="304" height="55" viewBox="0 0 304 55" fill="none" xmlns="http://www.w3.org/2000/svg">
<path d="M289.031 19.2174H293.141V15.5592L298.731 11.7365V19.2174H301.992C302.892 19.2174 303.623 19.9477 303.623 20.8485V24.1911H298.731V33.1929C298.731 34.2342 298.786 35.0837 298.896 35.7414C299.005 36.3716 299.225 36.8649 299.553 37.2211C299.91 37.5499 300.403 37.7692 301.033 37.8788C301.691 37.9884 302.554 38.0432 303.623 38.0432V43.2634H302.842C300.978 43.2634 299.416 43.099 298.156 42.7702C296.923 42.4413 295.936 41.8933 295.196 41.126C294.457 40.3313 293.922 39.3037 293.593 38.0432C293.292 36.7552 293.141 35.1522 293.141 33.234V24.1911H290.662C289.761 24.1911 289.031 23.4608 289.031 22.5599V19.2174Z" fill="white"/>
<path d="M234.704 14.4774C234.704 13.5766 235.435 12.8463 236.336 12.8463H240.254V22.0948C241.076 21.0535 242.09 20.2314 243.295 19.6285C244.528 19.0256 245.912 18.7242 247.447 18.7242C250.434 18.7242 252.763 19.6285 254.435 21.4371C256.133 23.2457 256.983 25.7667 256.983 29.0003V41.6323C256.983 42.5332 256.253 43.2635 255.352 43.2635H251.311V29.6168C251.311 27.7261 250.858 26.2463 249.954 25.1776C249.05 24.0815 247.693 23.5334 245.885 23.5334C245.118 23.5334 244.391 23.6841 243.706 23.9856C243.021 24.2596 242.418 24.6706 241.898 25.2187C241.404 25.7668 241.007 26.4518 240.706 27.2739C240.432 28.096 240.295 29.0277 240.295 30.069V43.2635H234.704V14.4774Z" fill="white"/>
<path d="M217.674 43.2635C215.372 43.2635 213.262 42.8662 211.344 42.0715C209.453 41.2494 207.836 40.1533 206.493 38.7831C205.151 37.3856 204.109 35.7551 203.369 33.8917C202.629 32.0009 202.26 29.9868 202.26 27.8494C202.26 25.6024 202.657 23.5472 203.452 21.6838C204.246 19.793 205.329 18.1625 206.699 16.7924C208.096 15.4222 209.727 14.3535 211.59 13.5862C213.481 12.8189 215.509 12.4353 217.674 12.4353C219.071 12.4353 220.414 12.6134 221.702 12.9697C223.017 13.3259 224.237 13.8328 225.36 14.4905C226.511 15.1208 227.539 15.9018 228.443 16.8335C229.375 17.7378 230.169 18.7517 230.827 19.8752L227.391 22.0698C226.601 22.5743 225.559 22.3007 224.989 21.5569C224.299 20.6573 223.505 19.9049 222.606 19.2997C221.263 18.3954 219.619 17.9433 217.674 17.9433C216.249 17.9433 214.933 18.2036 213.728 18.7243C212.522 19.2175 211.481 19.9163 210.604 20.8206C209.727 21.6975 209.042 22.7388 208.548 23.9445C208.055 25.1502 207.809 26.4519 207.809 27.8494C207.809 29.2195 208.055 30.5075 208.548 31.7132C209.042 32.8915 209.713 33.9328 210.563 34.8371C211.439 35.714 212.467 36.4128 213.645 36.9334C214.851 37.4267 216.153 37.6733 217.55 37.6733C219.633 37.6733 221.387 37.1527 222.812 36.1114C223.81 35.3768 224.653 34.5064 225.34 33.5C225.86 32.739 226.858 32.3965 227.675 32.8244L231.279 34.7138C230.621 35.9743 229.813 37.139 228.854 38.2077C227.922 39.249 226.867 40.1533 225.689 40.9206C224.538 41.6604 223.278 42.2359 221.907 42.6469C220.565 43.058 219.153 43.2635 217.674 43.2635Z" fill="white"/>
<path d="M272.246 43.2634C270.794 43.2634 269.355 42.9894 267.93 42.4414C266.533 41.8659 265.272 41.0438 264.149 39.9751C263.025 38.9064 262.121 37.6048 261.436 36.0702C260.751 34.5082 260.408 32.7408 260.408 30.7678C260.408 28.7673 260.737 26.9999 261.395 25.4653C262.08 23.9033 262.97 22.588 264.067 21.5193C265.19 20.4506 266.464 19.6422 267.889 19.0941C269.342 18.5187 270.821 18.231 272.329 18.231C273.918 18.231 275.384 18.5324 276.727 19.1352C278.069 19.7381 279.179 20.5602 280.056 21.6015V18.7242H283.974C284.875 18.7242 285.605 19.4545 285.605 20.3553V42.7702H281.687C280.786 42.7702 280.056 42.0399 280.056 41.1391V39.6463C279.179 40.7698 278.056 41.6604 276.686 42.3181C275.315 42.9483 273.836 43.2634 272.246 43.2634ZM273.151 38.1665C274.192 38.1665 275.151 37.9747 276.028 37.5911C276.905 37.2074 277.658 36.6731 278.289 35.988C278.919 35.3029 279.412 34.5082 279.768 33.6039C280.152 32.6997 280.344 31.7269 280.344 30.6855C280.344 29.6716 280.152 28.7125 279.768 27.8082C279.412 26.904 278.919 26.123 278.289 25.4653C277.658 24.7802 276.905 24.2459 276.028 23.8622C275.151 23.4786 274.192 23.2868 273.151 23.2868C272.137 23.2868 271.178 23.4786 270.273 23.8622C269.396 24.2459 268.629 24.7665 267.972 25.4242C267.314 26.0819 266.793 26.8629 266.41 27.7671C266.053 28.6714 265.875 29.6442 265.875 30.6855C265.875 31.7269 266.053 32.7134 266.41 33.6451C266.793 34.5493 267.314 35.344 267.972 36.0291C268.629 36.6868 269.396 37.2074 270.273 37.5911C271.178 37.9747 272.137 38.1665 273.151 38.1665Z" fill="white"/>
<path d="M85.4072 14.6382C85.7898 13.5638 86.807 12.8463 87.9475 12.8463H91.6767L102.364 42.8524H98.4471C97.2978 42.8524 96.2748 42.124 95.8989 41.0379L94.6773 37.5089H83.0448L81.1951 42.8524H75.3583L85.4072 14.6382ZM84.9356 32.1653H92.8276L88.8816 20.7794L84.9356 32.1653Z" fill="white"/>
<path d="M115.941 43.2635C113.228 43.2635 110.94 42.7565 109.077 41.7426C107.213 40.7013 105.597 39.4134 104.227 37.8788L106.887 35.7763C108.173 34.7595 110.034 35.1778 111.281 36.2428C111.561 36.4817 111.854 36.6982 112.16 36.8923C113.283 37.5774 114.53 37.9199 115.9 37.9199C117.38 37.9199 118.503 37.5089 119.271 36.6868C120.065 35.8647 120.463 34.933 120.463 33.8917C120.463 33.2615 120.285 32.7271 119.928 32.2886C119.572 31.8502 119.106 31.4803 118.531 31.1788C117.955 30.85 117.284 30.5623 116.517 30.3157C115.777 30.069 115.01 29.8224 114.215 29.5758C113.201 29.2469 112.187 28.8907 111.173 28.5071C110.159 28.1234 109.241 27.6165 108.419 26.9862C107.625 26.3285 106.967 25.5338 106.446 24.6021C105.953 23.6431 105.706 22.451 105.706 21.0261C105.706 19.8204 105.953 18.6969 106.446 17.6555C106.939 16.6142 107.625 15.7099 108.501 14.9427C109.406 14.148 110.461 13.5314 111.666 13.093C112.9 12.6545 114.229 12.4353 115.654 12.4353C116.859 12.4353 117.942 12.5449 118.901 12.7641C119.887 12.9834 120.778 13.2848 121.573 13.6684C122.395 14.0521 123.135 14.5179 123.792 15.066C124.477 15.5866 125.121 16.1621 125.724 16.7924L123.397 18.5588C122.161 19.4962 120.422 19.1063 119.098 18.2991C118.125 17.7056 116.99 17.4089 115.695 17.4089C114.325 17.4089 113.283 17.7377 112.571 18.3954C111.858 19.0531 111.502 19.8615 111.502 20.8206C111.502 21.4234 111.666 21.9304 111.995 22.3414C112.324 22.7525 112.763 23.1224 113.311 23.4512C113.886 23.7527 114.544 24.0267 115.284 24.2733C116.023 24.5199 116.804 24.7803 117.627 25.0543C118.64 25.3831 119.654 25.7668 120.668 26.2052C121.71 26.6163 122.641 27.1643 123.463 27.8494C124.313 28.5071 124.998 29.3292 125.519 30.3157C126.039 31.2748 126.3 32.4805 126.3 33.9328C126.3 35.1112 126.067 36.2621 125.601 37.3856C125.135 38.5091 124.464 39.5093 123.587 40.3862C122.71 41.2357 121.627 41.9345 120.339 42.4825C119.051 43.0032 117.585 43.2635 115.941 43.2635Z" fill="white"/>
<path d="M131.2 12.8463H136.749L145.833 25.4653L155.287 12.8463H157.893C159.383 12.8463 160.59 14.0536 160.59 15.5429V42.8524H155V21.807L145.792 34.2205L136.79 22.0126V42.8524H133.897C132.408 42.8524 131.2 41.6451 131.2 40.1558V12.8463Z" fill="white"/>
<path d="M174.659 12.8463H178.388C179.528 12.8463 180.545 13.5638 180.928 14.6382L190.977 42.8524H185.14L183.29 37.5089H171.658L169.808 42.8524H167.794C165.931 42.8524 164.629 41.0068 165.254 39.251L174.659 12.8463ZM173.549 32.1653H181.441L177.495 20.7794L173.549 32.1653Z" fill="white"/>
<path fill-rule="evenodd" clip-rule="evenodd" d="M31.3918 27.591C29.5357 27.591 28.0309 29.0979 28.0309 30.9567V34.3225H31.4332C33.2894 34.3225 34.7941 32.8156 34.7941 30.9567V27.591H31.3918ZM20.9323 27.591V30.9567C20.9323 32.8156 22.437 34.3225 24.2931 34.3225H27.6954V30.9567C27.6954 29.0979 26.1907 27.591 24.3346 27.591H20.9323ZM28.0309 20.4836V23.8494C28.0309 25.7083 29.5357 27.2152 31.3918 27.2152H34.7941V23.8494C34.7941 21.9905 33.2894 20.4836 31.4332 20.4836H28.0309ZM24.2931 20.4836C22.437 20.4836 20.9323 21.9905 20.9323 23.8494V27.2152H24.3346C26.1907 27.2152 27.6954 25.7083 27.6954 23.8494V20.4836H24.2931ZM27.8632 13.9086C35.2979 13.9086 41.3248 19.943 41.3248 27.3867C41.3248 34.4514 43.8936 41.516 49.0311 48.5806C41.9751 43.4368 34.9192 40.8649 27.8632 40.8649C20.4285 40.8649 14.4015 34.8305 14.4015 27.3867C14.4015 19.943 20.4285 13.9086 27.8632 13.9086Z" fill="white"/>
<path d="M27.9993 0.0952148C43.1401 0.0954471 55.4135 12.3649 55.4135 27.5C55.4135 33.3748 53.5626 38.8165 50.4143 43.2778C47.0121 37.7878 45.4351 32.5041 45.4351 27.3862C45.4348 17.6773 37.5723 9.79802 27.8629 9.79795C18.1536 9.7982 10.2909 17.6774 10.2906 27.3862C10.2907 37.0954 18.1534 44.9756 27.8629 44.9759C32.9682 44.9759 38.2405 46.5506 43.7196 49.9524C39.2686 53.0723 33.8483 54.9047 27.9993 54.9048H0.583862V27.5C0.583862 12.3648 12.8584 0.0952148 27.9993 0.0952148Z" fill="white"/>
</svg>
