<svg width="21" height="21" viewBox="0 0 21 21" fill="none" xmlns="http://www.w3.org/2000/svg">
<path d="M7.88089 10.1805C5.25518 10.1805 3.11899 8.04436 3.11899 5.41864C3.11899 2.79293 5.25518 0.656738 7.88089 0.656738C10.5066 0.656738 12.6428 2.79293 12.6428 5.41864C12.6428 8.04436 10.5066 10.1805 7.88089 10.1805ZM20.3118 14.0463L20.738 13.6363C20.5471 13.0901 20.2709 12.5863 19.9257 12.1415L19.3523 12.311C18.3071 12.6201 17.2166 11.9905 16.9609 10.931L16.7966 10.2491C16.5295 10.2039 16.2557 10.1805 15.9761 10.1805C15.6966 10.1805 15.4228 10.2039 15.1557 10.2491L14.9914 10.931C14.7357 11.9905 13.6452 12.6201 12.5999 12.311L12.0266 12.1415C11.6818 12.5858 11.4052 13.0901 11.2142 13.6363L11.6404 14.0463C12.419 14.7958 12.419 16.042 11.6404 16.7915L11.2142 17.201C11.4052 17.7472 11.6814 18.251 12.0266 18.6958L12.5999 18.5263C13.6452 18.2172 14.7357 18.8467 14.9914 19.9063L15.1557 20.5882C15.4228 20.6334 15.6971 20.6567 15.9761 20.6567C16.2557 20.6567 16.5295 20.6334 16.7966 20.5882L16.9609 19.9063C17.2166 18.8467 18.3071 18.2172 19.3523 18.5263L19.9257 18.6958C20.2704 18.2515 20.5471 17.7472 20.738 17.201L20.3118 16.791C19.5333 16.042 19.5333 14.7953 20.3118 14.0463ZM15.9761 16.8472C15.1871 16.8472 14.5476 16.2077 14.5476 15.4186C14.5476 14.6296 15.1871 13.9901 15.9761 13.9901C16.7652 13.9901 17.4047 14.6296 17.4047 15.4186C17.4047 16.2077 16.7652 16.8472 15.9761 16.8472ZM9.78566 15.4186C9.78566 14.1901 10.148 13.0482 10.7652 12.0853H2.51042C1.53328 12.0853 0.738037 12.9353 0.738037 13.9801V14.7044C0.738037 16.2667 1.54566 17.6244 3.01232 18.5267C4.24613 19.2863 5.89042 19.7044 7.6428 19.7044C8.85708 19.7044 10.0152 19.4996 11.0252 19.1234C10.2504 18.0896 9.78566 16.8101 9.78566 15.4186Z" fill="white"/>
</svg>
