<svg width="30" height="29" viewBox="0 0 30 29" fill="none" xmlns="http://www.w3.org/2000/svg">
<path d="M6.32784 0.988066C5.95659 0.988066 5.46675 1.07767 4.94597 1.42885C4.90472 1.45791 0.684326 4.35932 0.684326 5.94807L0.689483 6.04252C0.88542 9.794 3.90183 14.4343 9.6562 19.8399C15.408 25.2431 20.3477 28.0767 24.3412 28.2632L24.4082 28.2656C24.4263 28.2656 24.4443 28.2681 24.4624 28.2681C26.1897 28.2681 29.2242 24.3035 29.2551 24.2647C30.0363 23.2354 29.7527 22.085 29.0437 21.6103C28.5822 21.2834 23.7044 18.2827 23.1089 17.9485C22.4695 17.6046 21.5929 17.6699 20.8117 18.1107C20.3477 18.3481 18.9014 19.1255 18.231 19.4888C17.6329 19.1013 16.1685 18.0599 13.8869 15.8753C11.5975 13.7271 10.4657 12.3467 10.0352 11.7799C10.4245 11.1454 11.2495 9.78916 11.5099 9.33869C11.9765 8.53705 12.0307 7.70877 11.6542 7.17838C11.3191 6.65283 8.0655 2.01252 7.77159 1.62986C7.50862 1.28111 7.06003 1.05103 6.54698 1.00018C6.47995 0.99291 6.40776 0.988066 6.32784 0.988066Z" fill="white"/>
</svg>
