<svg width="28" height="33" viewBox="0 0 28 33" fill="none" xmlns="http://www.w3.org/2000/svg">
<path d="M19.4654 0.641113C17.466 0.641113 15.4686 1.41481 13.9708 2.95818L3.1036 14.1552C-0.959665 18.3433 -0.959665 25.0758 3.1036 29.264C3.22887 29.3929 3.3794 29.496 3.54624 29.5669C3.54889 29.5678 3.55154 29.5686 3.5542 29.5695C7.64801 33.3587 14.0337 33.3163 17.9652 29.264L25.6094 21.386C25.7388 21.261 25.8411 21.1119 25.9104 20.9476C25.9796 20.7832 26.0143 20.6069 26.0123 20.4292C26.0104 20.2515 25.9719 20.0759 25.8991 19.913C25.8263 19.7501 25.7208 19.6032 25.5887 19.4809C25.4566 19.3587 25.3007 19.2636 25.1302 19.2014C24.9598 19.1392 24.7783 19.1111 24.5965 19.1188C24.4147 19.1265 24.2363 19.1698 24.072 19.2462C23.9077 19.3226 23.7608 19.4305 23.64 19.5634L15.9958 27.4414C12.94 30.5912 8.13144 30.5912 5.07561 27.4414C2.01965 24.2915 2.01965 19.1277 5.07561 15.9778L15.9402 4.78077C17.9279 2.73246 21.0055 2.73246 22.9933 4.78077C24.9808 6.82887 24.9808 10.2094 22.9933 12.2575L13.1041 22.45C12.1828 23.3988 10.8379 23.3981 9.91815 22.45C8.99837 21.502 8.99837 19.9057 9.91815 18.9576L17.8724 10.7585C18.0018 10.6336 18.1042 10.4845 18.1734 10.3201C18.2426 10.1558 18.2773 9.97947 18.2754 9.80174C18.2735 9.62402 18.235 9.44849 18.1622 9.28559C18.0894 9.12269 17.9838 8.97575 17.8517 8.85351C17.7197 8.73126 17.5638 8.63621 17.3933 8.574C17.2228 8.51179 17.0413 8.4837 16.8595 8.49139C16.6777 8.49908 16.4994 8.5424 16.3351 8.61877C16.1708 8.69515 16.0238 8.80301 15.9031 8.93595L7.94614 17.135C6.01877 19.1216 6.01877 22.286 7.94614 24.2726C8.07479 24.4048 8.22999 24.5097 8.40204 24.5807C10.3571 26.176 13.2776 26.1219 15.0735 24.2726L24.9626 14.0801C27.8347 11.1205 27.876 6.48881 25.2409 3.38794C25.1774 3.22849 25.0829 3.08255 24.9626 2.95818C23.4649 1.41481 21.4648 0.641113 19.4654 0.641113Z" fill="white"/>
</svg>
