<svg width="91" height="75" viewBox="0 0 91 75" fill="none" xmlns="http://www.w3.org/2000/svg">
<path d="M20.2195 73.4799C19.964 73.4799 19.7936 73.4372 19.7084 73.352C19.5381 73.2668 19.4529 73.2242 19.4529 73.2242H19.8362C20.0066 73.2242 20.1344 73.2242 20.2195 73.2242C20.3047 73.3094 20.3899 73.352 20.4751 73.352C20.4751 73.5225 20.5603 73.5225 20.7306 73.352C20.901 73.352 21.0288 73.3946 21.114 73.4799C21.114 73.5651 20.9862 73.6077 20.7306 73.6077C20.4751 73.6077 20.3473 73.5651 20.3473 73.4799C20.3473 73.3946 20.3047 73.3946 20.2195 73.4799ZM21.7528 73.7355C21.838 73.7355 21.838 73.7781 21.7528 73.8633C21.6676 73.8633 21.5825 73.8207 21.4973 73.7355C21.4121 73.6503 21.4121 73.5651 21.4973 73.4799C21.6676 73.4799 21.7528 73.5651 21.7528 73.7355ZM16.8974 72.0739C16.8122 72.3295 16.7271 72.3721 16.6419 72.2017V71.9461H16.7697L16.8974 72.0739ZM8.59213 41.654C8.67731 41.654 8.7199 41.7392 8.7199 41.9096C8.7199 42.08 8.67731 42.1652 8.59213 42.1652C8.42176 42.1652 8.33658 42.08 8.33658 41.9096C8.33658 41.9096 8.42176 41.867 8.59213 41.7818V41.654ZM6.93107 40.8871C7.01625 40.9723 7.10143 41.0149 7.18661 41.0149L7.31439 41.1427C7.22921 41.2279 7.14402 41.2279 7.05884 41.1427H6.80329C6.80329 41.1427 6.7607 41.1001 6.67552 41.0149C6.67552 40.9297 6.63293 40.8871 6.54774 40.8871C6.54774 40.8019 6.54774 40.8019 6.54774 40.8871C6.37738 40.8871 6.33479 40.8445 6.41997 40.7593L6.54774 40.6314C6.63293 40.7166 6.67552 40.7593 6.67552 40.7593C6.7607 40.7593 6.84588 40.8019 6.93107 40.8871ZM11.0198 42.4208C11.0198 42.4208 10.9772 42.3782 10.8921 42.293C10.8069 42.2078 10.7643 42.1226 10.7643 42.0374L10.8921 42.1652C11.0624 42.3356 11.105 42.4208 11.0198 42.4208ZM9.35877 42.293C9.52913 42.3782 9.57173 42.4634 9.48654 42.5487C9.48654 42.6339 9.40136 42.6339 9.23099 42.5487C9.14581 42.4634 9.10322 42.3782 9.10322 42.293V42.0374L9.35877 42.293ZM12.6809 66.5779V66.8335C12.5957 66.8335 12.5531 66.7909 12.5531 66.7057V66.5779H12.6809ZM12.5531 43.5712C12.7235 43.4008 12.7235 43.2729 12.5531 43.1877C12.4679 43.1025 12.4253 43.0173 12.4253 42.9321H12.5531C12.6383 43.0173 12.7235 43.1451 12.8087 43.3155C12.979 43.4008 13.0642 43.486 13.0642 43.5712C13.0642 43.6564 13.0216 43.6564 12.9364 43.5712C12.9364 43.4008 12.8513 43.4008 12.6809 43.5712H12.5531ZM13.9586 43.4434C13.7031 43.6138 13.5753 43.6564 13.5753 43.5712C13.5753 43.5712 13.6605 43.5286 13.8309 43.4434C13.916 43.3582 14.0012 43.3155 14.0864 43.3155L13.9586 43.4434ZM43.8577 64.405C43.8577 64.405 43.7725 64.4902 43.6022 64.6606C43.4318 64.6606 43.3466 64.618 43.3466 64.5328C43.3466 64.5328 43.4318 64.4902 43.6022 64.405H43.8577ZM0.925695 36.4135C0.499783 35.1354 0.372009 33.9425 0.542374 32.8347C0.712739 31.727 1.13865 30.321 1.82011 28.6168C2.50157 27.0831 3.31081 25.6771 4.24781 24.399C5.18482 23.1208 6.46256 21.7574 8.08103 20.3089C10.0402 18.5195 12.1272 16.9857 14.3419 15.7075C16.5567 14.3442 19.2825 13.0234 22.5195 11.7453C23.4565 11.4044 23.925 11.1488 23.925 10.9784H24.0528C24.0528 11.0636 24.0953 11.1062 24.1805 11.1062C24.3509 11.021 24.4787 10.9358 24.5639 10.8506C24.7342 10.6802 24.862 10.5949 24.9472 10.5949C25.2027 10.5949 25.586 10.4671 26.0971 10.2115C26.6934 10.0411 27.2471 9.87066 27.7582 9.70024C28.2693 9.44461 28.7804 9.23159 29.2915 9.06117C29.3767 9.06117 29.5044 8.97596 29.6748 8.80554C29.76 8.72033 29.8452 8.67772 29.9304 8.67772C29.9304 8.5073 29.9729 8.4647 30.0581 8.54991C30.1433 8.63512 30.7396 8.5073 31.847 8.16647C32.6136 7.91084 33.6784 7.57 35.0413 7.14395C36.4894 6.71789 38.0227 6.29184 39.6412 5.86579C41.2596 5.35454 42.7503 4.88588 44.1132 4.45984C45.5614 4.03378 46.6687 3.69294 47.4354 3.43732C50.6723 2.58521 53.8667 1.90354 57.0184 1.39228C60.2553 0.881019 63.2367 0.540179 65.9626 0.36976C66.8996 0.284549 68.3051 0.241943 70.1791 0.241943C72.1383 0.241943 73.7994 0.284549 75.1623 0.36976H77.0789L78.2289 0.625389H76.6956C76.2697 0.7106 75.6734 0.753205 74.9067 0.753205C74.1401 0.753205 73.416 0.7106 72.7346 0.625389C72.0531 0.625389 71.4143 0.625389 70.818 0.625389C70.2217 0.540177 69.881 0.540177 69.7958 0.625389L69.2847 0.753205L69.668 0.881017H70.3069C70.3069 0.710598 70.4772 0.710598 70.818 0.881017H71.2013C71.2865 0.881017 71.9254 0.881017 73.1179 0.881017C74.3956 0.881017 75.3752 0.923622 76.0567 1.00883C76.9085 1.17925 77.4622 1.30707 77.7178 1.39228C77.9733 1.39228 78.1863 1.30707 78.3566 1.13665C78.527 1.13665 78.5696 1.17925 78.4844 1.26446C78.3992 1.34967 78.527 1.43488 78.8677 1.52009C79.2085 1.6053 79.5918 1.64791 80.0177 1.64791C80.1881 1.73311 80.5714 1.86093 81.1677 2.03135C81.8491 2.11656 82.2324 2.20177 82.3176 2.28698C82.4028 2.28698 82.488 2.32959 82.5732 2.4148C82.6584 2.4148 82.7861 2.4574 82.9565 2.54261C83.212 2.54261 83.425 2.62782 83.5954 2.79824C83.8509 2.79824 84.0639 2.92605 84.2342 3.18168C84.3194 3.18168 84.362 3.22429 84.362 3.3095C84.362 3.3095 84.4046 3.3095 84.4898 3.3095H84.6176C84.6176 3.39471 84.6601 3.43732 84.7453 3.43732H85.0009C85.2564 3.43732 85.5972 3.56513 86.0231 3.82076C86.1934 3.99118 86.3638 4.07639 86.5342 4.07639C86.6193 4.1616 86.7045 4.2042 86.7897 4.2042C86.7897 4.03378 87.0878 4.1616 87.6841 4.58765C88.3656 4.92849 88.8341 5.22672 89.0896 5.48235C89.8563 6.24924 90.3248 6.93092 90.4952 7.52739C90.4952 7.78302 90.5377 7.91083 90.6229 7.91083C90.7933 8.08126 90.7933 8.67773 90.6229 9.70024C90.5377 11.0636 90.2822 11.8731 89.8563 12.1287C89.7711 12.1287 89.7285 12.2565 89.7285 12.5122C89.6433 12.6826 89.3878 13.0234 88.9619 13.5347C88.6211 14.0459 88.3656 14.3868 88.1952 14.5572C88.0249 14.7276 87.9823 14.8128 88.0674 14.8128L87.9397 14.9406C87.9397 15.0259 87.8971 15.0685 87.8119 15.0685C87.8119 15.0685 87.8119 15.1111 87.8119 15.1963C87.3008 15.5371 86.8323 15.9632 86.4064 16.4744C85.8101 17.1561 84.8305 18.0508 83.4676 19.1585C82.1898 20.1811 81.0399 20.9906 80.0177 21.587C79.0807 22.2687 77.9733 22.9504 76.6956 23.6321C75.4178 24.3137 74.1401 24.9528 72.8624 25.5493C71.6698 26.1458 70.5198 26.6996 69.4125 27.2109C68.3051 27.6369 67.4533 27.8926 66.857 27.9778C66.4311 27.9778 66.2607 27.9352 66.3459 27.8499C66.4311 27.7647 66.6866 27.7221 67.1125 27.7221C67.4533 27.6369 68.007 27.4239 68.7736 27.0831C69.5402 26.7422 70.3921 26.3588 71.3291 25.9327C72.3513 25.5067 73.3309 25.0806 74.2679 24.6546C75.2049 24.1433 76.0567 23.6747 76.8233 23.2486C77.3344 22.9078 78.0159 22.4817 78.8677 21.9705C79.7196 21.374 80.5288 20.8201 81.2954 20.3089C82.0621 19.7976 82.6584 19.329 83.0843 18.9029C83.5954 18.4769 83.8083 18.2638 83.7231 18.2638L82.7009 19.0307C82.0195 19.542 81.5936 19.7976 81.4232 19.7976L81.1677 20.0532C81.1677 20.2237 81.0825 20.3089 80.9121 20.3089C80.7417 20.3941 80.614 20.4367 80.5288 20.4367C80.4436 20.4367 80.3158 20.4793 80.1455 20.5645C79.8899 20.8201 79.4214 21.1184 78.74 21.4592C78.5696 21.6296 78.3566 21.8 78.1011 21.9705C77.8455 22.0557 77.6326 22.1835 77.4622 22.3539C77.2067 22.6095 76.9937 22.6521 76.8233 22.4817C76.7382 22.3965 76.6956 22.4391 76.6956 22.6095C76.7808 22.6948 76.7808 22.7374 76.6956 22.7374C76.44 22.7374 76.3123 22.8226 76.3123 22.993C76.2271 23.0782 76.1419 23.0782 76.0567 22.993C75.8863 22.8226 75.8012 22.8226 75.8012 22.993C75.8012 23.0782 75.4604 23.3338 74.779 23.7599C74.5234 23.9303 74.2253 24.0581 73.8846 24.1433C73.629 24.2285 73.5012 24.3137 73.5012 24.399C73.416 24.4842 73.1179 24.612 72.6068 24.7824C72.1809 24.9528 71.7124 25.1658 71.2013 25.4215C70.6902 25.5919 70.2217 25.7623 69.7958 25.9327C69.3699 26.1031 69.1143 26.1884 69.0291 26.1884C68.944 26.1884 68.8162 26.2736 68.6458 26.444C68.6458 26.5292 68.6032 26.5718 68.5181 26.5718H68.007C67.6662 26.5718 67.5384 26.6144 67.6236 26.6996C67.7088 26.7848 67.5385 26.87 67.1125 26.9552C66.6866 27.0405 66.3459 27.0831 66.0903 27.0831C66.0052 27.0831 65.92 27.1257 65.8348 27.2109C65.8348 27.2109 65.7922 27.2109 65.707 27.2109H65.5792C65.7496 27.3813 65.707 27.4665 65.4515 27.4665C65.2811 27.5517 65.1959 27.5091 65.1959 27.3387C65.1959 27.0831 65.1959 26.9552 65.1959 26.9552H65.0682C65.2385 27.3813 65.0682 27.5943 64.5571 27.5943C64.3867 27.6795 64.2589 27.6795 64.1737 27.5943C64.1737 27.5091 64.2589 27.3813 64.4293 27.2109C64.5997 27.2109 64.6848 27.2109 64.6848 27.2109C64.6848 27.1257 64.6422 27.0831 64.5571 27.0831C64.1311 27.0831 63.9182 27.2109 63.9182 27.4665C64.0886 27.7221 63.9608 27.7647 63.5349 27.5943C63.5349 27.4239 63.6626 27.2535 63.9182 27.0831C64.0886 26.9126 64.1737 26.8274 64.1737 26.8274C64.2589 26.7422 64.2163 26.7422 64.046 26.8274C63.8756 26.9126 63.6626 27.0405 63.4071 27.2109C63.1515 27.3813 63.0664 27.5091 63.1516 27.5943C63.1516 27.6795 63.109 27.7221 63.0238 27.7221C62.9386 27.7221 62.8534 27.5943 62.7682 27.3387C62.7682 26.9978 62.683 26.8274 62.5127 26.8274C62.2571 26.7422 61.8738 26.6144 61.3627 26.444C60.9368 26.1884 60.6813 25.9753 60.5961 25.8049C60.4257 25.6345 60.5109 25.4641 60.8516 25.2937H59.7017C59.0202 25.2937 58.7646 25.2084 58.935 25.038C59.1906 24.8676 59.7868 24.5268 60.7238 24.0155C61.2349 23.8451 61.746 23.6321 62.2571 23.3764C62.7682 23.1208 63.109 22.9504 63.2793 22.8652C63.7904 22.6948 64.046 22.6095 64.046 22.6095C64.1311 22.6095 64.5997 22.3965 65.4515 21.9705C66.3885 21.5444 66.8996 21.3314 66.9848 21.3314C67.0699 21.2462 67.1551 21.2036 67.2403 21.2036C67.4107 21.2036 67.581 21.161 67.7514 21.0758C68.007 20.9053 68.1773 20.8201 68.2625 20.8201C68.2625 20.7349 68.6032 20.6071 69.2847 20.4367C69.7958 20.1811 70.1365 19.968 70.3069 19.7976C70.4772 19.7124 70.7328 19.6272 71.0735 19.542C71.4143 19.3716 71.7976 19.2011 72.2235 19.0307C72.3087 19.0307 72.4364 18.9455 72.6068 18.7751L72.7346 18.6473C72.7346 18.4769 72.905 18.3916 73.2457 18.3916L73.7568 18.136C73.842 18.0508 73.9271 18.0082 74.0123 18.0082C74.2679 18.0082 74.4382 17.9656 74.5234 17.8804C75.0345 17.5396 75.3327 17.3691 75.4178 17.3691C75.4178 17.3691 75.5456 17.2413 75.8012 16.9857C75.8863 16.9005 75.9715 16.8579 76.0567 16.8579C76.2271 16.7727 76.3974 16.6875 76.5678 16.6022C76.9085 16.4318 77.0789 16.304 77.0789 16.2188C77.0789 16.1336 77.2067 16.091 77.4622 16.091C77.5474 16.0058 77.8455 15.7928 78.3566 15.4519C78.9529 15.0259 79.5066 14.5998 80.0177 14.1738C80.614 13.7477 81.1677 13.3217 81.6788 12.8956C82.1898 12.4696 82.5306 12.1713 82.7009 12.0009C82.8713 11.9157 83.0843 11.7453 83.3398 11.4897C83.425 11.4044 83.4676 11.3192 83.4676 11.234C83.3824 11.1488 83.425 11.1062 83.5954 11.1062C83.9361 11.1914 84.2342 10.9358 84.4898 10.3393C84.7453 9.65764 84.7879 9.14638 84.6176 8.80554V8.42209C84.7027 8.33688 84.6601 8.29428 84.4898 8.29428C84.4046 8.37949 84.3194 8.42209 84.2342 8.42209C84.2342 8.33688 84.2768 8.25167 84.362 8.16647C84.362 8.08125 84.1491 7.86823 83.7231 7.52739C83.3824 7.35697 83.212 7.27176 83.212 7.27176H83.0843C82.1473 7.10134 81.7213 6.97353 81.8065 6.88831C81.8065 6.88831 81.7213 6.93092 81.551 7.01613C81.2954 7.27176 81.1677 7.31437 81.1677 7.14395C81.338 6.97352 81.338 6.88831 81.1677 6.88831C81.0825 6.88831 81.0399 6.93092 81.0399 7.01613C81.0399 7.01613 80.9973 7.01613 80.9121 7.01613C80.9121 7.27176 80.8269 7.22916 80.6566 6.88831C80.401 6.7179 80.2307 6.67529 80.1455 6.7605C80.1455 6.84571 80.0603 6.88831 79.8899 6.88831C79.8047 6.88831 79.7196 6.84571 79.6344 6.7605C79.6344 6.7605 79.464 6.7605 79.1233 6.7605C78.9529 6.84571 78.8677 6.84571 78.8677 6.7605C78.8677 6.59008 78.7825 6.59008 78.6122 6.7605C78.6122 6.7605 78.5696 6.7179 78.4844 6.63269C78.4844 6.54747 78.3566 6.50487 78.1011 6.50487C77.8455 6.59008 77.7178 6.54748 77.7178 6.37706C77.6326 6.46226 77.4622 6.50487 77.2067 6.50487C77.0363 6.41966 76.8234 6.37706 76.5678 6.37706C76.0567 6.37706 75.8012 6.41966 75.8012 6.50487C75.8012 6.59008 75.7586 6.63269 75.6734 6.63269C75.6734 6.63269 75.6734 6.59008 75.6734 6.50487C75.503 6.33445 75.2901 6.29185 75.0345 6.37706C74.6086 6.63269 74.2679 6.67529 74.0123 6.50487C73.6716 6.41966 73.5012 6.41966 73.5012 6.50487C73.5864 6.59008 73.5864 6.63269 73.5012 6.63269C73.416 6.63269 73.2883 6.59008 73.1179 6.50487C72.9475 6.33445 72.7346 6.29185 72.479 6.37706C72.3939 6.46226 72.0105 6.50487 71.3291 6.50487C70.6476 6.50487 70.2643 6.54747 70.1791 6.63269C70.0087 6.8031 69.9236 6.8031 69.9236 6.63269C69.8384 6.54747 69.668 6.50487 69.4125 6.50487C69.3273 6.59008 69.1995 6.63269 69.0291 6.63269H68.7736C68.4329 6.8031 68.007 6.88831 67.4959 6.88831C67.1551 6.88831 66.9848 6.88831 66.9848 6.88831C66.8996 6.88831 66.7292 6.93092 66.4737 7.01613C66.3033 7.01613 66.1329 7.01613 65.9626 7.01613H65.0682C64.983 7.01613 64.8978 7.05874 64.8126 7.14395C64.7274 7.14395 64.5997 7.14395 64.4293 7.14395C64.3441 7.22915 64.2589 7.27176 64.1737 7.27176H64.046H63.5349C63.1941 7.27176 63.0238 7.31436 63.0238 7.39958C62.8534 7.39958 62.7256 7.35697 62.6405 7.27176C62.5553 7.18655 62.4701 7.14395 62.3849 7.14395C62.3849 7.14395 62.4275 7.18655 62.5127 7.27176C62.5127 7.35697 62.1294 7.52739 61.3627 7.78302C61.022 7.86823 60.7238 7.91083 60.4683 7.91083C60.2128 7.91083 60.0424 7.95344 59.9572 8.03865C59.7868 8.03865 59.7442 7.99604 59.8294 7.91083C59.8294 7.74041 59.7017 7.78302 59.4461 8.03865C59.2757 8.12386 59.0628 8.16647 58.8072 8.16647C58.5517 8.16647 58.2961 8.20907 58.0406 8.29428C57.785 8.37949 57.4869 8.4647 57.1462 8.54991C56.8906 8.54991 56.7203 8.59251 56.6351 8.67772H56.2518H55.8684C55.6981 8.84814 55.187 9.06117 54.3352 9.3168C53.4833 9.40201 53.1 9.40201 53.1852 9.3168C53.1852 9.14638 53.1426 9.14638 53.0574 9.3168C52.8871 9.48722 52.6741 9.65764 52.4185 9.82806C52.163 9.91327 52.0352 9.87066 52.0352 9.70024C52.0352 9.44461 51.95 9.48722 51.7797 9.82806C51.6945 9.91327 51.6093 9.95587 51.5241 9.95587C51.4389 9.95587 51.3964 9.99848 51.3964 10.0837C51.3112 10.0837 51.226 10.1263 51.1408 10.2115C51.0556 10.2115 50.9279 10.2115 50.7575 10.2115C50.6723 10.2967 50.5445 10.3393 50.3742 10.3393H50.2464C50.2464 10.3393 50.076 10.4245 49.7353 10.5949H49.352C49.352 10.4245 49.2668 10.4245 49.0964 10.5949C48.9261 10.7654 48.7131 10.8506 48.4576 10.8506C48.2872 10.8506 48.0316 10.9358 47.6909 11.1062C45.9021 11.6175 44.9225 11.8731 44.7521 11.8731C44.7521 12.0435 44.5818 12.1713 44.241 12.2565C43.7299 12.427 43.4744 12.5122 43.4744 12.5122C43.304 12.6826 43.0485 12.7678 42.7077 12.7678C42.5374 12.7678 42.1966 12.853 41.6855 13.0234C41.5152 13.1086 41.2596 13.2365 40.9189 13.4069C40.6634 13.4921 40.3652 13.5773 40.0245 13.6625C39.7689 13.7477 39.4708 13.8755 39.1301 14.0459C38.7893 14.2164 38.4486 14.3016 38.1079 14.3016C37.5968 14.6424 37.2561 14.8128 37.0857 14.8128C37.0005 14.8128 36.9153 14.8554 36.8301 14.9406C36.8301 14.9406 36.745 14.9406 36.5746 14.9406C36.4042 15.1111 36.1913 15.1963 35.9357 15.1963C35.8505 15.1963 35.595 15.2815 35.1691 15.4519C34.7432 15.6223 34.3173 15.8354 33.8913 16.091C33.4654 16.2614 33.0395 16.4318 32.6136 16.6022C32.1877 16.7727 31.9321 16.8579 31.847 16.8579L31.3359 17.1135C31.1655 17.1987 30.9525 17.2839 30.697 17.3691C30.5266 17.4543 30.3563 17.5396 30.1859 17.6248C29.6748 17.7952 29.0359 18.0934 28.2693 18.5195C27.5027 18.8603 26.6934 19.2864 25.8416 19.7976C24.9898 20.2237 24.1379 20.6923 23.2861 21.2036C22.4343 21.7148 21.7102 22.1835 21.114 22.6095C19.1548 23.8025 17.4511 25.1232 16.003 26.5718C14.5549 27.9352 13.5327 29.1281 12.9364 30.1506C11.5735 33.0478 12.8938 35.0076 16.8974 36.0301C17.4085 36.2005 17.9196 36.2857 18.4307 36.2857H19.1974C19.1974 36.4561 18.7714 36.4988 17.9196 36.4135C16.9826 36.4135 16.5141 36.4562 16.5141 36.5414C16.5141 36.6266 16.5567 36.6692 16.6419 36.6692H16.8974C17.6641 36.6692 18.3029 36.7544 18.814 36.9248C18.9844 36.9248 19.3677 37.01 19.964 37.1804C20.5603 37.2656 21.0714 37.3082 21.4973 37.3082C21.5825 37.4787 21.7528 37.4361 22.0084 37.1804H22.2639C22.2639 37.3509 22.3917 37.4787 22.6472 37.5639C22.9028 37.5639 23.1158 37.5213 23.2861 37.4361C23.5417 37.3509 23.6694 37.3509 23.6694 37.4361C23.6694 37.4361 24.5213 37.5213 26.2249 37.6917C27.9286 37.8621 28.7804 37.8195 28.7804 37.5639C28.7804 37.4787 28.4823 37.4361 27.886 37.4361C27.3749 37.3509 26.0545 37.223 23.925 37.0526C22.3065 36.8822 21.1991 36.797 20.6029 36.797C20.0918 36.7118 19.9214 36.584 20.0918 36.4135C20.0918 36.4135 20.8158 36.4135 22.2639 36.4135C23.5417 36.584 25.1175 36.7544 26.9916 36.9248C28.9508 37.0952 30.91 37.2656 32.8692 37.4361C34.8284 37.6065 36.6598 37.7769 38.3634 37.9473C40.0671 38.0325 41.3874 38.1177 42.3244 38.203C44.1984 38.3734 45.6465 38.5012 46.6687 38.5864C47.6909 38.5864 48.5427 38.629 49.2242 38.7142C50.1612 38.7994 50.6723 38.7994 50.7575 38.7142C50.8427 38.7142 50.8853 38.7142 50.8853 38.7142C50.8853 38.7994 51.0556 38.8846 51.3964 38.9698C51.7371 38.9698 52.376 39.0551 53.313 39.2255C53.7389 39.3107 54.1222 39.3533 54.4629 39.3533C54.8037 39.3533 55.0592 39.3533 55.2296 39.3533C55.4851 39.3533 55.6981 39.3959 55.8684 39.4811H56.2518C56.5073 39.7367 56.6351 39.7367 56.6351 39.4811C56.6351 39.3959 56.6777 39.3959 56.7629 39.4811C56.9332 39.6515 57.061 39.7367 57.1462 39.7367C57.4869 39.7367 57.7425 39.7793 57.9128 39.8645C58.0832 39.8645 58.2536 39.9071 58.4239 39.9924C58.6795 39.9924 58.8924 39.9924 59.0628 39.9924C59.9146 40.1628 60.4257 40.248 60.5961 40.248C60.8516 40.248 61.0646 40.2906 61.2349 40.3758H61.3627C61.6183 40.3758 61.8738 40.4184 62.1294 40.5036C62.4701 40.674 62.683 40.7166 62.7682 40.6314C62.7682 40.6314 62.8534 40.674 63.0238 40.7593C63.1941 40.9297 63.7052 41.1427 64.5571 41.3983C65.4941 41.5687 66.0478 41.6113 66.2181 41.5261C66.3033 41.5261 66.3459 41.5687 66.3459 41.654C66.2607 41.654 66.2181 41.6966 66.2181 41.7818C66.3033 41.7818 66.3885 41.7818 66.4737 41.7818C66.7292 41.7818 67.1551 41.9096 67.7514 42.1652C68.3477 42.3356 68.9014 42.5487 69.4125 42.8043C70.0087 43.0599 70.5198 43.3155 70.9458 43.5712C71.4568 43.7416 71.7124 43.8694 71.7124 43.9546L72.479 44.4659C72.6494 44.5511 72.8198 44.6789 72.9901 44.8493C73.0753 44.9345 73.1605 44.9771 73.2457 44.9771C73.2457 45.0624 73.3309 45.2754 73.5012 45.6162C73.5864 45.7866 73.6716 45.9144 73.7568 45.9997C73.842 45.9997 73.8846 46.0423 73.8846 46.1275V46.3831C74.0549 46.3831 74.1827 46.7239 74.2679 47.4056C74.4382 48.0021 74.4808 48.5133 74.3956 48.9394C74.3956 50.1323 74.2253 50.814 73.8846 50.9844C73.9697 50.9844 73.9697 51.1549 73.8846 51.4957C73.5438 51.8365 73.3735 52.007 73.3735 52.007C73.2883 52.007 73.2457 52.0496 73.2457 52.1348C73.3309 52.22 73.2883 52.433 73.1179 52.7738C72.9475 52.8591 72.8198 52.9443 72.7346 53.0295C72.7346 53.1147 72.7772 53.1573 72.8624 53.1573C72.8624 53.2425 72.8198 53.2851 72.7346 53.2851C72.6494 53.2851 72.6068 53.3277 72.6068 53.4129C72.6068 53.5833 72.5216 53.6685 72.3513 53.6685L72.0957 54.1798C71.9254 54.4354 71.7976 54.5633 71.7124 54.5633C71.542 54.5633 71.4568 54.6059 71.4568 54.6911V54.8189C71.4568 54.9041 71.4143 54.9467 71.3291 54.9467C71.3291 54.9467 71.3291 54.9893 71.3291 55.0745C71.2439 55.1597 71.0735 55.3301 70.818 55.5858C70.6476 55.8414 70.3921 56.1396 70.0513 56.4805C69.3699 57.2474 68.3051 58.2273 66.857 59.4202C65.4941 60.5279 64.1737 61.4653 62.896 62.2321C58.8924 64.7032 54.5481 66.8761 49.8631 68.7507C45.2632 70.7105 40.5782 72.2017 35.8079 73.2242C34.0191 73.6503 32.6136 73.9059 31.5914 73.9911C30.5692 74.1615 29.1637 74.332 27.3749 74.5024C25.7564 74.6728 24.649 74.758 24.0528 74.758C23.4565 74.758 23.0732 74.6728 22.9028 74.5024C22.7324 74.4172 22.9028 74.3746 23.4139 74.3746C24.0102 74.2893 24.3083 74.2041 24.3083 74.1189C24.3083 74.1189 24.3509 74.0763 24.4361 73.9911C24.6064 73.9911 24.649 74.0337 24.5639 74.1189C24.4787 74.2041 24.6064 74.2467 24.9472 74.2467C25.3731 74.332 25.6712 74.332 25.8416 74.2467C26.012 74.1615 26.0971 74.0337 26.0971 73.8633C26.0971 73.6929 26.012 73.6503 25.8416 73.7355C25.6712 73.7355 25.6286 73.6503 25.7138 73.4799C25.799 73.3094 25.7138 73.3094 25.4583 73.4799C25.3731 73.4799 25.3305 73.4799 25.3305 73.4799C25.3305 73.5651 25.2879 73.6077 25.2027 73.6077H25.0749C24.9046 73.4373 24.8194 73.4373 24.8194 73.6077C24.7342 73.6929 24.6064 73.7355 24.4361 73.7355C24.3509 73.6503 24.1379 73.5651 23.7972 73.4799C23.4565 73.4799 23.0732 73.4799 22.6472 73.4799C22.4769 73.4799 22.3917 73.3946 22.3917 73.2242C22.3917 73.2242 22.3065 73.2242 22.1361 73.2242C22.1361 73.2242 22.1361 73.3094 22.1361 73.4799C22.1361 73.5651 22.0936 73.5651 22.0084 73.4799C21.838 73.2242 21.4547 73.0538 20.8584 72.9686H20.4751C20.3899 72.9686 20.3473 72.926 20.3473 72.8408C20.2621 72.8408 20.1344 72.7982 19.964 72.713C19.7936 72.713 19.6233 72.713 19.4529 72.713C18.9418 72.5425 18.7714 72.5425 18.9418 72.713C19.027 72.7982 19.027 72.8408 18.9418 72.8408C18.9418 72.926 18.8992 72.926 18.814 72.8408C18.6437 72.8408 18.5585 72.713 18.5585 72.4573C18.5585 72.2869 18.4733 72.2869 18.3029 72.4573C18.3029 72.4573 18.2603 72.4147 18.1752 72.3295C18.1752 72.2443 18.1326 72.2017 18.0474 72.2017C17.9622 72.2017 17.9196 72.2443 17.9196 72.3295V72.4573C17.9196 72.6278 17.8344 72.713 17.6641 72.713C17.4937 72.7982 17.4937 72.7556 17.6641 72.5852C17.7493 72.4999 17.7493 72.3295 17.6641 72.0739C17.4085 71.9887 17.2807 71.9461 17.2807 71.9461H17.153C17.0678 71.9461 16.94 71.8609 16.7697 71.6904H16.3863C16.4715 71.7757 16.2586 71.6478 15.7475 71.307C15.3215 71.0514 14.853 70.7105 14.3419 70.2845C14.2568 70.1993 14.129 70.0289 13.9586 69.7732C13.7883 69.5176 13.6179 69.262 13.4475 69.0063C13.192 68.4951 13.0216 68.1542 12.9364 67.9838C12.8513 67.8134 12.8513 67.5152 12.9364 67.0891C12.9364 66.1518 13.0642 65.5553 13.3198 65.2997C13.3198 65.2145 13.3198 65.0867 13.3198 64.9163C13.4049 64.7458 13.4475 64.5754 13.4475 64.405C13.5327 63.2973 14.5123 61.9339 16.3863 60.3149C17.3233 59.548 18.09 58.9516 18.6863 58.5255C19.2825 58.0143 19.9214 57.5456 20.6029 57.1196C20.688 57.1196 20.901 57.0343 21.2417 56.8639C21.3269 56.7787 21.4547 56.7361 21.6251 56.7361C21.7102 56.5657 22.0936 56.3101 22.775 55.9692C23.5417 55.6284 24.3509 55.2875 25.2027 54.9467C26.1397 54.6059 27.0341 54.3076 27.886 54.052C28.7378 53.7112 29.3767 53.4981 29.8026 53.4129C30.1433 53.3277 30.4415 53.2425 30.697 53.1573C30.9525 52.9869 31.1655 52.8591 31.3359 52.7738C31.5062 52.7738 31.7192 52.7312 31.9747 52.646C32.2303 52.5608 32.4858 52.4756 32.7414 52.3904C35.4672 51.6235 37.1709 51.4531 37.8523 51.8791C38.0227 51.9644 38.3634 52.007 38.8745 52.007C39.8967 52.1774 40.4504 52.433 40.5356 52.7738C40.5356 53.2851 40.2374 53.4981 39.6412 53.4129H39.2578C39.5134 53.5833 39.5986 53.7538 39.5134 53.9242C39.4282 54.0094 39.1727 54.052 38.7467 54.052C38.2357 54.052 37.9801 54.052 37.9801 54.052L37.8523 54.1798C37.8523 54.1798 37.8523 54.2224 37.8523 54.3076C37.8523 54.3928 37.682 54.4354 37.3412 54.4354C36.9153 54.4354 36.6598 54.478 36.5746 54.5633H36.319C36.2339 54.478 36.2765 54.4354 36.4468 54.4354C36.6172 54.3502 36.7876 54.3502 36.9579 54.4354L37.0857 54.3076C37.1709 54.1372 36.9579 54.1372 36.4468 54.3076C36.1061 54.3076 36.0209 54.3928 36.1913 54.5633C36.1913 54.7337 36.1487 54.7763 36.0635 54.6911L35.8079 54.5633C35.8079 54.6485 35.6802 54.6911 35.4246 54.6911C35.1691 54.6911 34.9561 54.7763 34.7858 54.9467C34.5302 54.9467 34.4024 54.9041 34.4024 54.8189C34.4876 54.7337 34.5302 54.6911 34.5302 54.6911C34.5302 54.6059 34.4876 54.6059 34.4024 54.6911C34.3173 54.7763 34.2747 54.8615 34.2747 54.9467C34.3598 55.0319 34.2321 55.1597 33.8913 55.3301C33.5506 55.5006 33.3377 55.5432 33.2525 55.458C33.0821 55.3727 32.8692 55.458 32.6136 55.7136C32.2729 55.884 32.1025 55.884 32.1025 55.7136C32.0173 55.5432 31.9321 55.458 31.847 55.458C31.7618 55.458 31.7192 55.5432 31.7192 55.7136C31.8044 55.7988 31.6766 55.9266 31.3359 56.097C31.0803 56.2675 30.91 56.2675 30.8248 56.097C30.6544 56.0118 30.5266 56.0118 30.4414 56.097C30.1859 56.1822 30.1859 56.2248 30.4414 56.2248C30.697 56.0544 30.7396 56.0544 30.5692 56.2248C30.3989 56.3953 30.1433 56.5657 29.8026 56.7361C29.6322 56.8213 29.2915 56.9491 28.7804 57.1196C28.3545 57.2048 27.9286 57.3752 27.5027 57.6308C27.2471 57.8012 26.9916 57.929 26.736 58.0143C26.5656 58.0143 26.3953 58.0569 26.2249 58.1421C25.9694 58.2273 25.799 58.2699 25.7138 58.2699C25.7138 58.2699 25.6286 58.2273 25.4583 58.1421C25.4583 58.1421 25.4583 58.2273 25.4583 58.3977C25.5435 58.4829 25.5009 58.5681 25.3305 58.6533C25.2453 58.6533 25.1175 58.6107 24.9472 58.5255C24.862 58.5255 24.862 58.5681 24.9472 58.6533V58.7811C24.9472 58.9516 24.862 59.0368 24.6916 59.0368C24.5213 59.2072 24.3935 59.2072 24.3083 59.0368C24.2231 58.9516 24.1805 58.9516 24.1805 59.0368C24.1805 59.2924 24.0528 59.4628 23.7972 59.548C23.6268 59.548 23.4139 59.6758 23.1583 59.9315C22.9028 60.1019 22.6472 60.1871 22.3917 60.1871C22.1362 59.9315 22.0936 59.9741 22.2639 60.3149C22.3491 60.4001 22.3065 60.4853 22.1361 60.5705C21.9658 60.6558 21.7528 60.6984 21.4973 60.6984C21.4973 60.954 21.4547 61.0818 21.3695 61.0818C21.1991 61.0818 20.8584 61.3374 20.3473 61.8487C19.9214 62.2748 19.5381 62.7008 19.1974 63.1268C18.9418 63.2973 18.8566 63.3399 18.9418 63.2547C19.027 63.2547 19.4103 63.0416 20.0918 62.6156C21.1991 61.6783 22.4769 60.741 23.925 59.8037C25.4583 58.8664 27.2045 58.0143 29.1637 57.2474C29.8452 56.9065 30.5692 56.6083 31.3359 56.3527C32.1877 56.097 32.9543 55.884 33.6358 55.7136C34.4024 55.5432 34.9987 55.458 35.4246 55.458C35.9357 55.458 36.1913 55.5006 36.1913 55.5858C36.1913 55.7562 36.1061 55.8414 35.9357 55.8414C35.7654 55.8414 35.4246 55.884 34.9135 55.9692C34.4024 56.0544 33.8062 56.2248 33.1247 56.4805C32.4432 56.6509 31.7618 56.8639 31.0803 57.1196C30.3989 57.29 29.8026 57.503 29.2915 57.7586C27.8434 58.3551 26.4379 59.0368 25.0749 59.8037C23.712 60.4853 22.4769 61.2096 21.3695 61.9765C20.3473 62.7434 19.4955 63.4677 18.814 64.1494C18.2178 64.831 17.9196 65.3849 17.9196 65.811C17.8344 66.3222 18.1326 66.7909 18.814 67.2169C19.4955 67.7282 20.177 67.9838 20.8584 67.9838H22.1361H24.1805C24.7768 67.9838 25.0749 67.8986 25.0749 67.7282C25.2453 67.5578 25.3305 67.5578 25.3305 67.7282C25.3305 67.9838 25.586 68.0264 26.0971 67.856C26.2675 67.7708 26.4805 67.7282 26.736 67.7282C26.9916 67.7282 27.2045 67.6856 27.3749 67.6004C27.7156 67.6004 27.886 67.5152 27.886 67.3447C27.8008 67.2595 27.8434 67.2595 28.0137 67.3447C28.1841 67.5152 28.3971 67.5152 28.6526 67.3447C28.823 67.3447 29.2489 67.2595 29.9304 67.0891C30.6118 66.9187 31.0377 66.8335 31.2081 66.8335H31.3359C31.421 66.8335 31.4636 66.7909 31.4636 66.7057C31.4636 66.7057 31.5062 66.7057 31.5914 66.7057C31.7618 66.5352 31.9321 66.45 32.1025 66.45C32.2729 66.5352 32.571 66.5352 32.9969 66.45C33.508 66.3648 33.8488 66.237 34.0191 66.0666C34.5302 65.8962 34.8284 65.7684 34.9135 65.6831C35.0839 65.5979 35.2543 65.5553 35.4246 65.5553H35.8079C35.8931 65.4701 36.0209 65.4275 36.1913 65.4275C36.3616 65.3423 36.6172 65.2571 36.9579 65.1719C37.5542 65.0015 38.0227 64.7884 38.3634 64.5328H38.7467C38.8319 64.5328 38.8745 64.4902 38.8745 64.405C38.8745 64.3198 38.9171 64.2772 39.0023 64.2772C39.1727 64.4476 39.6412 64.3198 40.4078 63.8937C40.5782 63.8085 40.7059 63.7233 40.7911 63.6381C40.9615 63.5529 41.1319 63.4677 41.3022 63.3825C41.4726 63.2973 41.643 63.2547 41.8133 63.2547C41.8985 63.2547 42.0689 63.2121 42.3244 63.1268C42.58 63.1268 42.7929 63.0842 42.9633 62.999C43.0485 62.9138 43.1762 62.8712 43.3466 62.8712C43.6022 62.786 43.8151 62.6582 43.9855 62.4878C44.1558 62.4026 44.3688 62.3174 44.6243 62.2321C44.9651 62.0617 45.2206 61.9339 45.391 61.8487C45.5614 61.6783 45.7317 61.5931 45.9021 61.5931C46.0724 61.5931 46.2002 61.5505 46.2854 61.4653C46.541 61.4653 46.6687 61.38 46.6687 61.2096C46.6687 61.1244 46.7539 61.0818 46.9243 61.0818C47.0946 61.0818 47.1372 61.0392 47.052 60.954C47.052 60.8688 47.052 60.8262 47.052 60.8262C47.1372 60.741 47.1798 60.741 47.1798 60.8262C47.3502 60.9114 47.6057 60.8688 47.9465 60.6984C48.2872 60.5279 48.5427 60.3575 48.7131 60.1871C48.7983 60.1019 48.9687 60.0593 49.2242 60.0593C49.3094 60.1445 49.4372 60.1019 49.6075 59.9315C49.6075 59.8463 49.7779 59.7185 50.1186 59.548C50.4593 59.3776 51.2686 58.9516 52.5463 58.2699C52.8871 58.2699 53.1426 58.2273 53.313 58.1421C53.5685 57.9717 53.6537 57.8438 53.5685 57.7586C53.5685 57.6734 53.6111 57.6308 53.6963 57.6308C53.6963 57.6308 53.7815 57.5882 53.9518 57.503C54.037 57.503 54.1648 57.4604 54.3352 57.3752C54.5907 57.29 54.8037 57.2048 54.974 57.1196C55.0592 57.1196 55.1018 57.1196 55.1018 57.1196C55.187 57.0343 55.2722 56.9917 55.3573 56.9917C55.4425 56.9917 55.5277 56.9491 55.6129 56.8639C55.6981 56.8639 55.7407 56.8213 55.7407 56.7361C55.8259 56.6509 55.9536 56.5657 56.124 56.4805C56.2944 56.3953 56.4221 56.3101 56.5073 56.2248C56.6777 56.0544 56.848 55.9266 57.0184 55.8414C57.1888 55.8414 57.3591 55.7988 57.5295 55.7136C57.6999 55.5432 57.8702 55.4154 58.0406 55.3301C58.2961 55.0745 58.5091 54.9467 58.6795 54.9467L58.935 54.6911C58.935 54.6911 59.1906 54.6059 59.7017 54.4354L60.2127 53.9242C60.2979 53.839 60.3831 53.7964 60.4683 53.7964C60.5535 53.7964 60.8516 53.5833 61.3627 53.1573C61.8738 52.7312 62.4275 52.2626 63.0238 51.7513C63.7052 51.1549 64.3015 50.601 64.8126 50.0897C65.4089 49.5785 65.7496 49.2376 65.8348 49.0672C66.0052 48.7264 66.1329 48.556 66.2181 48.556C66.5589 48.4707 66.5589 48.2151 66.2181 47.7891C66.0478 47.7891 65.9626 47.6612 65.9626 47.4056C65.9626 47.3204 65.7496 47.15 65.3237 46.8944C64.983 46.6387 64.7274 46.5109 64.5571 46.5109C64.4719 46.5109 64.3441 46.4257 64.1737 46.2553C64.1737 46.0849 64.0886 46.0849 63.9182 46.2553C63.833 46.4257 63.7478 46.3831 63.6626 46.1275C63.6626 46.0423 63.5775 45.9997 63.4071 45.9997C63.4071 45.9997 63.3219 45.9997 63.1516 45.9997C62.9812 45.8292 62.8534 45.7866 62.7682 45.8718C62.683 45.9571 62.6405 45.9571 62.6405 45.8718C62.6405 45.7866 62.5127 45.744 62.2571 45.744C62.1719 45.8292 62.1294 45.7866 62.1294 45.6162C62.2145 45.531 62.2145 45.4884 62.1294 45.4884C61.959 45.6588 61.7886 45.6588 61.6183 45.4884C61.5331 45.318 61.4905 45.318 61.4905 45.4884C61.5757 45.5736 61.5331 45.6162 61.3627 45.6162C61.022 45.4458 60.5961 45.3606 60.085 45.3606L59.8294 45.105C59.6591 44.9345 59.5739 44.8919 59.5739 44.9771C59.4887 45.1476 59.5313 45.318 59.7017 45.4884C59.7868 45.4884 59.872 45.531 59.9572 45.6162C60.0424 45.6162 60.1276 45.6162 60.2127 45.6162C60.2979 45.6162 60.3405 45.6588 60.3405 45.744C60.4257 45.744 60.5535 45.744 60.7238 45.744C60.9794 45.744 61.1924 45.8292 61.3627 45.9997C61.5331 45.9997 61.6609 45.9571 61.746 45.8718C61.8312 45.7866 61.8738 45.8292 61.8738 45.9997C61.6183 45.9997 61.746 46.0849 62.2571 46.2553C63.0238 46.6813 63.7052 47.1926 64.3015 47.7891C64.983 48.3855 65.3237 48.8968 65.3237 49.3228C65.3237 49.5785 65.1959 49.5359 64.9404 49.195C64.5145 48.2577 63.4923 47.4482 61.8738 46.7665C60.2553 45.9997 58.3813 45.4458 56.2518 45.105C55.3999 45.0197 53.9518 44.9345 51.9075 44.8493C49.8631 44.6789 47.7761 44.5937 45.6465 44.5937C43.517 44.5085 41.643 44.4659 40.0245 44.4659C38.4912 44.3807 37.8097 44.3807 37.9801 44.4659C38.0653 44.5511 37.5542 44.5937 36.4468 44.5937C36.0209 44.5085 35.4246 44.5085 34.658 44.5937C33.8913 44.5937 33.1673 44.5511 32.4858 44.4659C30.5266 44.5511 28.9082 44.5937 27.6304 44.5937C26.4379 44.5085 25.7564 44.3807 25.586 44.2102C25.4157 44.125 25.2453 44.0824 25.0749 44.0824C24.9046 44.0824 24.4361 44.0824 23.6694 44.0824C23.0732 43.9972 22.6898 43.9546 22.5195 43.9546C22.4343 43.9546 22.1787 43.912 21.7528 43.8268C21.4121 43.8268 21.1991 43.8694 21.114 43.9546C21.0288 44.0398 20.9862 44.0398 20.9862 43.9546C20.9862 43.8694 20.8584 43.8268 20.6029 43.8268C20.3473 43.8268 20.2195 43.7842 20.2195 43.699H20.0918H19.8362C19.751 43.699 19.7084 43.7842 19.7084 43.9546C19.7936 44.0398 19.7936 44.0824 19.7084 44.0824C19.7084 44.0824 19.6659 44.0398 19.5807 43.9546C19.4103 43.7842 19.3251 43.7842 19.3251 43.9546C19.4103 44.0398 19.4103 44.125 19.3251 44.2102C19.3251 44.2102 19.2825 44.1676 19.1974 44.0824C19.027 44.0824 18.9418 43.9972 18.9418 43.8268C18.9418 43.6564 18.8566 43.5712 18.6863 43.5712C18.5159 43.5712 18.4307 43.6138 18.4307 43.699C18.4307 43.8694 18.3455 43.8694 18.1752 43.699C18.09 43.6138 17.9196 43.5712 17.6641 43.5712C17.4085 43.7416 17.2807 43.7416 17.2807 43.5712C17.3659 43.5712 17.3233 43.5712 17.153 43.5712C17.0678 43.486 16.8974 43.4434 16.6419 43.4434C16.3863 43.4434 16.1308 43.4008 15.8752 43.3155C15.6197 43.2303 15.4067 43.1877 15.2364 43.1877C14.8105 43.1877 14.5549 43.2303 14.4697 43.3155C14.2994 43.486 14.2994 43.4008 14.4697 43.0599L14.853 42.5487L14.4697 42.8043C14.2142 42.9747 14.129 42.9321 14.2142 42.6765C14.3845 42.3356 14.3419 42.293 14.0864 42.5487C14.0012 42.5487 13.8309 42.5913 13.5753 42.6765C13.4049 42.6765 13.2346 42.6765 13.0642 42.6765C12.8087 42.6765 12.6383 42.6765 12.5531 42.6765C12.4679 42.5913 12.4679 42.5487 12.5531 42.5487C12.6383 42.4634 12.6383 42.4208 12.5531 42.4208C12.2124 42.2504 12.1272 42.3356 12.2976 42.6765C12.2976 42.8469 12.2124 42.8469 12.042 42.6765V42.4208C12.1272 42.2504 12.042 42.2504 11.7865 42.4208H11.6587V42.293C11.4883 42.293 11.3606 42.3356 11.2754 42.4208V42.293C11.3606 42.0374 11.3606 41.9096 11.2754 41.9096C11.2754 42.08 11.105 42.08 10.7643 41.9096C10.5087 41.8244 10.3384 41.8244 10.2532 41.9096C10.2532 41.9948 10.168 42.0374 9.99764 42.0374C9.91245 42.0374 9.91245 41.9948 9.99764 41.9096C10.0828 41.9096 10.168 41.867 10.2532 41.7818C10.2532 41.6114 10.2106 41.5687 10.1254 41.654H9.86986C9.78468 41.654 9.57172 41.5687 9.23099 41.3983C8.97545 41.2279 8.7199 41.1427 8.46435 41.1427C8.29399 41.2279 8.2088 41.2279 8.2088 41.1427C8.2088 40.9723 8.08103 40.8871 7.82548 40.8871C7.7403 40.8871 7.65512 40.8871 7.56994 40.8871C7.48475 40.8019 7.39957 40.7593 7.31439 40.7593C6.97366 40.4184 6.7607 40.248 6.67552 40.248C6.59034 40.1628 6.50515 40.1628 6.41997 40.248C6.41997 40.3332 6.37738 40.3758 6.2922 40.3758H6.16442C5.99406 40.3758 5.99406 40.3332 6.16442 40.248C6.50515 40.0776 6.41997 39.9924 5.90888 39.9924C5.73851 39.9924 5.69592 39.9498 5.7811 39.8645C5.95147 39.8645 5.90888 39.8219 5.65333 39.7367C5.39778 39.9072 5.27001 39.8645 5.27001 39.6089C5.27001 39.4385 5.22741 39.3533 5.14223 39.3533C4.88668 39.3533 4.75891 39.2681 4.75891 39.0977C4.58855 38.842 4.50336 38.7142 4.50336 38.7142C4.333 38.7142 3.99227 38.5012 3.48117 38.0751C3.05526 37.5639 2.8423 37.223 2.8423 37.0526L2.58676 36.5414C2.24603 35.9449 2.07566 35.5188 2.07566 35.2632C2.07566 35.178 2.03307 35.1354 1.94789 35.1354C1.8627 35.1354 1.8627 35.0928 1.94789 35.0076C1.94789 34.8372 1.90529 34.6667 1.82011 34.4963C1.73493 34.4111 1.69234 34.2833 1.69234 34.1129C1.69234 34.0277 1.64975 33.9425 1.56456 33.8572C1.3942 33.4312 1.3942 33.2182 1.56456 33.2182C1.73493 33.2182 1.73493 33.133 1.56456 32.9625C1.3942 32.8773 1.3942 32.7495 1.56456 32.5791C1.64975 32.4939 1.64975 32.3661 1.56456 32.1957C1.47938 32.0252 1.47938 31.9826 1.56456 32.0678C1.56456 31.8122 1.60716 31.5992 1.69234 31.4288C1.77752 31.4288 1.82011 31.4288 1.82011 31.4288C1.82011 31.3436 1.77752 31.301 1.69234 31.301C1.52197 31.301 1.52197 31.2583 1.69234 31.1731C1.8627 31.0027 1.8627 30.9175 1.69234 30.9175C1.52197 30.7471 1.3942 30.7471 1.30902 30.9175C1.22383 31.0879 1.09606 31.514 0.925695 32.1957C0.75533 33.0478 0.75533 34.0277 0.925695 35.1354C1.18124 36.2431 1.56456 37.3509 2.07566 38.4586C2.24603 38.629 2.33121 38.7994 2.33121 38.9698C2.41639 39.1403 2.41639 39.1829 2.33121 39.0977C2.16084 39.0977 1.94789 38.842 1.69234 38.3308C1.43679 37.7343 1.18124 37.0952 0.925695 36.4135ZM37.5968 54.3076C37.5968 54.1372 37.5542 54.052 37.469 54.052L37.3412 54.1798C37.3412 54.1798 37.3412 54.2224 37.3412 54.3076L37.469 54.4354L37.5968 54.3076ZM37.2135 52.1348H37.3412H37.469H37.2135ZM31.0803 53.5407C30.91 53.7112 30.8248 53.839 30.8248 53.9242C30.8248 53.9242 31.0377 53.839 31.4636 53.6685L31.9747 53.4129C32.0599 53.4981 32.1025 53.4981 32.1025 53.4129C32.1025 53.4129 32.1877 53.4129 32.3581 53.4129H32.9969C33.3377 53.2425 33.5932 53.1573 33.7636 53.1573C33.8488 53.0721 33.9339 53.0295 34.0191 53.0295C34.1043 53.0295 34.1895 52.9869 34.2747 52.9017C34.2747 52.9017 34.7006 52.7312 35.5524 52.3904C35.8931 52.3904 36.1487 52.3904 36.319 52.3904C36.5746 52.3052 36.6172 52.2626 36.4468 52.2626C36.2765 52.0922 35.808 52.1348 35.0413 52.3904C34.1895 52.5608 33.6784 52.6886 33.508 52.7738C33.4228 52.7738 33.2099 52.8591 32.8692 53.0295C32.6136 53.1147 32.4007 53.1999 32.2303 53.2851C32.1451 53.2851 32.0173 53.2851 31.847 53.2851C31.6766 53.2851 31.421 53.3703 31.0803 53.5407ZM16.5141 61.3374C16.5141 61.2522 16.5141 61.2096 16.5141 61.2096C16.5993 61.2096 16.6419 61.167 16.6419 61.0818L16.7697 60.954C16.5141 60.954 16.3437 61.0818 16.2586 61.3374C16.1734 61.4227 16.1308 61.5079 16.1308 61.5931C16.1308 61.6783 16.0882 61.7209 16.003 61.7209C16.0882 61.7209 16.2586 61.5931 16.5141 61.3374ZM26.9916 57.6308C27.1619 57.6308 27.2045 57.5882 27.1193 57.503H26.9916H26.8638C26.7786 57.5882 26.8212 57.6308 26.9916 57.6308ZM29.8026 56.4805C30.1433 56.3101 30.1859 56.2248 29.9304 56.2248C29.8452 56.2248 29.7174 56.3101 29.547 56.4805C29.4619 56.4805 29.3767 56.5231 29.2915 56.6083C29.2915 56.6083 29.3341 56.6083 29.4193 56.6083C29.5044 56.6083 29.547 56.6083 29.547 56.6083C29.6322 56.5231 29.7174 56.4805 29.8026 56.4805ZM19.4529 58.7811C19.1122 59.122 18.9418 59.2498 18.9418 59.1646C18.9418 59.335 19.1122 59.335 19.4529 59.1646C19.7936 58.8238 20.2195 58.5255 20.7306 58.2699C21.2417 57.929 21.7102 57.6308 22.1361 57.3752C22.6472 57.2048 22.9454 57.0769 23.0306 56.9917C23.2009 56.9917 23.4139 56.9065 23.6694 56.7361C23.925 56.5657 24.2657 56.3953 24.6916 56.2248C25.0324 56.0544 25.3731 55.9266 25.7138 55.8414C26.1397 55.671 26.4379 55.5006 26.6082 55.3301C26.6934 55.2449 26.7786 55.2023 26.8638 55.2023C26.949 55.2023 27.0341 55.1597 27.1193 55.0745C27.2045 55.0745 27.2897 55.0319 27.3749 54.9467C27.3749 55.0319 27.4601 54.9893 27.6304 54.8189C27.7156 54.7337 27.8434 54.6911 28.0137 54.6911C28.0989 54.6911 28.3119 54.6911 28.6526 54.6911C28.9933 54.6059 29.1637 54.5207 29.1637 54.4354C29.1637 54.3502 29.1637 54.3076 29.1637 54.3076C29.2489 54.3076 29.2915 54.3502 29.2915 54.4354C29.4619 54.4354 29.547 54.3928 29.547 54.3076C29.6322 54.2224 29.8026 54.1798 30.0581 54.1798C30.1433 54.1798 30.2711 54.0946 30.4414 53.9242C30.5266 53.839 30.5266 53.7964 30.4414 53.7964H30.1859C29.76 53.9668 29.3767 54.0946 29.0359 54.1798C28.6952 54.1798 28.0563 54.3928 27.1193 54.8189C26.6934 55.0745 26.2675 55.2875 25.8416 55.458C25.4157 55.5432 25.1601 55.6284 25.0749 55.7136C24.9898 55.7136 24.9046 55.7562 24.8194 55.8414C24.8194 55.8414 24.862 55.8414 24.9472 55.8414C24.9472 55.9266 24.862 55.9266 24.6916 55.8414C24.5213 55.8414 24.4361 55.884 24.4361 55.9692C24.4361 56.1396 24.3509 56.2248 24.1805 56.2248C23.925 56.2248 23.7546 56.2675 23.6694 56.3527C23.6694 56.5231 23.5417 56.6083 23.2861 56.6083C23.2009 56.6083 22.988 56.6935 22.6472 56.8639C22.3917 57.0343 22.051 57.2048 21.6251 57.3752C21.3695 57.5456 20.9862 57.8012 20.4751 58.1421C19.964 58.3977 19.6233 58.6107 19.4529 58.7811ZM17.9196 60.0593C18.5159 59.548 18.7714 59.2924 18.6863 59.2924C18.5159 59.3776 18.3881 59.4628 18.3029 59.548C18.1326 59.6332 17.9196 59.8037 17.6641 60.0593C17.2382 60.4853 17.0252 60.6984 17.0252 60.6984C17.1104 60.6984 17.1956 60.6558 17.2807 60.5705C17.3659 60.4853 17.4511 60.4427 17.5363 60.4427C17.6215 60.3575 17.7493 60.2297 17.9196 60.0593ZM30.0581 73.7355C30.0581 73.6503 29.8878 73.6077 29.547 73.6077C29.3767 73.7781 29.0785 73.7781 28.6526 73.6077C28.4823 73.6929 28.3119 73.7355 28.1415 73.7355C28.0563 73.7355 27.9712 73.7781 27.886 73.8633C27.8008 73.8633 27.8008 73.8207 27.886 73.7355C27.886 73.4798 27.8434 73.352 27.7582 73.352H27.6304V73.4799C27.6304 73.5651 27.5027 73.6077 27.2471 73.6077C27.0767 73.6077 27.0767 73.6503 27.2471 73.7355C27.4175 73.9059 27.4175 73.9911 27.2471 73.9911H26.8638C26.6934 74.0763 26.6508 74.0763 26.736 73.9911C26.9064 73.8207 26.9064 73.7355 26.736 73.7355C26.5656 73.5651 26.3953 73.5225 26.2249 73.6077C26.1397 73.6929 26.1397 73.8207 26.2249 73.9911C26.2249 74.0763 26.4379 74.1189 26.8638 74.1189C27.0341 74.1189 27.2471 74.1189 27.5027 74.1189C27.7582 74.1189 28.0137 74.0763 28.2693 73.9911C28.61 74.0763 28.8656 74.0763 29.0359 73.9911C29.2915 73.9911 29.5044 73.9911 29.6748 73.9911C29.76 73.9911 29.8878 73.9059 30.0581 73.7355ZM30.1859 68.3673C30.2711 68.3673 30.3137 68.3246 30.3137 68.2394C30.3989 68.2394 30.3989 68.2394 30.3137 68.2394C30.1433 68.3246 29.9304 68.3673 29.6748 68.3673L29.547 68.4951C29.547 68.7507 29.76 68.7081 30.1859 68.3673ZM30.5692 68.3673L31.4636 68.2394C31.634 68.2394 31.8044 68.1968 31.9747 68.1116C32.1451 68.1116 32.2729 68.1116 32.3581 68.1116C32.3581 68.0264 32.4432 67.9838 32.6136 67.9838C32.6988 68.069 32.9969 68.069 33.508 67.9838C34.0191 67.9838 34.3598 67.9412 34.5302 67.856C34.5302 67.856 34.4876 67.7708 34.4024 67.6004H34.0191C33.8488 67.6004 33.6358 67.643 33.3802 67.7282C33.1247 67.8134 32.9969 67.8986 32.9969 67.9838H32.7414C32.6562 67.9838 32.5284 67.9412 32.3581 67.856C32.1877 67.856 31.9321 67.8986 31.5914 67.9838L30.5692 68.3673ZM31.3359 73.7355C31.421 73.7355 31.5062 73.6929 31.5914 73.6077C31.5914 73.5225 31.5062 73.4799 31.3359 73.4799C31.2507 73.5651 31.1655 73.5651 31.0803 73.4799C31.0803 73.4799 31.1229 73.3946 31.2081 73.2242V73.0964L31.0803 73.2242C30.91 73.4799 30.7822 73.6077 30.697 73.6077C30.5266 73.6077 30.4414 73.6503 30.4414 73.7355C30.4414 73.8207 30.5692 73.8633 30.8248 73.8633C30.8248 73.8633 30.91 73.8207 31.0803 73.7355H31.3359ZM31.7192 72.713C31.634 72.713 31.5914 72.713 31.5914 72.713C31.5914 72.7982 31.6766 72.8408 31.847 72.8408C32.0173 72.8408 32.0599 72.7982 31.9747 72.713H31.7192ZM32.1025 73.4799C32.3581 73.5651 32.4858 73.6077 32.4858 73.6077C32.4006 73.6077 32.3581 73.5651 32.3581 73.4799C32.3581 73.4799 32.3155 73.4799 32.2303 73.4799C32.1451 73.3946 32.0599 73.3946 31.9747 73.4799H32.1025ZM32.2303 72.8408C32.2303 73.0112 32.4007 73.0112 32.7414 72.8408C32.8266 72.7556 32.8266 72.713 32.7414 72.713H32.6136C32.5284 72.713 32.4432 72.7556 32.3581 72.8408H32.2303ZM32.9969 73.4799C33.1673 73.4799 33.2525 73.4372 33.2525 73.352H33.1247H32.8692C32.784 73.4372 32.8266 73.4799 32.9969 73.4799ZM33.7636 73.2242C33.7636 73.0538 33.721 72.9686 33.6358 72.9686C33.6358 72.9686 33.5932 73.0538 33.508 73.2242C33.508 73.2242 33.5506 73.2668 33.6358 73.352L33.7636 73.2242ZM34.5302 72.4573C34.7858 72.4573 34.9561 72.4147 35.0413 72.3295H34.7858H34.4024C34.1469 72.4147 33.8913 72.4573 33.6358 72.4573C33.4654 72.4573 33.3377 72.4573 33.2525 72.4573C33.2525 72.4573 33.2951 72.4999 33.3802 72.5852C33.721 72.7556 33.8913 72.7556 33.8913 72.5852H34.0191C34.1043 72.5852 34.1469 72.5425 34.1469 72.4573C34.2321 72.4573 34.3598 72.4573 34.5302 72.4573ZM34.5302 67.4726C34.6154 67.643 34.7432 67.7282 34.9135 67.7282C35.1691 67.7282 35.2969 67.643 35.2969 67.4726C35.2969 67.3873 35.2117 67.3021 35.0413 67.2169C34.8709 67.2169 34.7858 67.2595 34.7858 67.3447H34.5302C34.3598 67.2595 34.3598 67.3021 34.5302 67.4726ZM35.9357 72.5852C35.9357 72.4999 35.9783 72.4573 36.0635 72.4573C36.0635 72.4573 36.1061 72.4147 36.1913 72.3295C36.1913 72.1591 36.0209 72.0739 35.6802 72.0739C35.6802 72.0739 35.5524 72.0739 35.2969 72.0739C35.2969 72.1591 35.382 72.2017 35.5524 72.2017C35.808 72.3721 35.9357 72.4573 35.9357 72.4573C35.8505 72.5425 35.8505 72.5852 35.9357 72.5852ZM36.7024 72.4573L36.4468 72.5852C36.3616 72.6704 36.2765 72.713 36.1913 72.713C36.1061 72.713 36.0635 72.7556 36.0635 72.8408C36.0635 72.926 36.1061 72.9686 36.1913 72.9686C36.2765 72.9686 36.3616 72.8834 36.4468 72.713L36.7024 72.4573ZM36.8301 72.0739C36.8301 72.0739 36.7875 72.0313 36.7024 71.9461C36.6172 71.9461 36.532 71.9461 36.4468 71.9461C36.4468 72.0313 36.4894 72.0739 36.5746 72.0739C36.5746 72.2443 36.6172 72.3295 36.7024 72.3295C36.7024 72.3295 36.745 72.2443 36.8301 72.0739ZM37.3412 71.9461C37.5116 71.9461 37.5542 71.9035 37.469 71.8183H37.3412H37.2135C37.1283 71.8183 37.0857 71.8183 37.0857 71.8183C37.0857 71.9035 37.1709 71.9461 37.3412 71.9461ZM38.4912 66.7057C38.4912 66.6205 38.4912 66.5779 38.4912 66.5779C38.5764 66.5779 38.619 66.5352 38.619 66.45L38.7467 66.3222C38.5764 66.3222 38.406 66.4074 38.2357 66.5779C38.2357 66.7483 38.1505 66.7483 37.9801 66.5779C37.8949 66.4074 37.682 66.3648 37.3412 66.45C37.0005 66.5352 36.8301 66.6631 36.8301 66.8335C36.8301 66.8335 36.9153 66.7909 37.0857 66.7057C37.1709 66.7057 37.2135 66.7483 37.2135 66.8335H36.8301C36.5746 66.7483 36.4042 66.7483 36.319 66.8335C36.2339 66.8335 36.1487 66.8335 36.0635 66.8335C36.0635 66.9187 35.9783 66.9613 35.8079 66.9613C35.6376 66.8761 35.5098 66.8761 35.4246 66.9613C35.3394 67.0465 35.3394 67.1317 35.4246 67.2169C35.5098 67.3873 35.7228 67.4726 36.0635 67.4726C36.4894 67.4726 36.7024 67.3873 36.7024 67.2169C36.7024 67.1317 36.7876 67.0891 36.9579 67.0891C37.0431 67.1743 37.0857 67.2169 37.0857 67.2169C37.1709 67.2169 37.1709 67.1743 37.0857 67.0891C37.0857 67.0039 37.1709 66.9613 37.3412 66.9613C37.5968 66.9613 37.7246 66.9187 37.7246 66.8335C37.7246 66.7483 37.7671 66.7483 37.8523 66.8335C38.1079 66.8335 38.3208 66.7909 38.4912 66.7057ZM39.2578 71.5626C39.4282 71.4774 39.5134 71.4348 39.5134 71.4348L39.3856 71.307C39.3004 71.307 39.2153 71.307 39.1301 71.307C39.1301 71.3922 39.0875 71.4348 39.0023 71.4348C38.9171 71.4348 38.8745 71.4774 38.8745 71.5626C38.9597 71.6478 39.0875 71.6478 39.2578 71.5626ZM39.6412 66.45C39.8967 66.2796 39.9393 66.1944 39.7689 66.1944C39.6838 66.1944 39.5986 66.1944 39.5134 66.1944C39.4282 66.2796 39.3004 66.3222 39.1301 66.3222C39.0449 66.4074 39.0449 66.3222 39.1301 66.0666C39.2153 66.0666 39.2578 66.024 39.2578 65.9388C39.343 65.9388 39.343 65.9388 39.2578 65.9388C39.0875 65.8536 38.8745 65.8536 38.619 65.9388C38.3634 66.024 38.2357 66.1518 38.2357 66.3222C38.0653 66.4926 38.1079 66.4926 38.3634 66.3222C38.619 66.237 38.7893 66.237 38.8745 66.3222C39.0449 66.4926 39.3004 66.5352 39.6412 66.45ZM40.4078 71.307C40.5782 71.307 40.7059 71.2644 40.7911 71.1792C40.8763 71.1792 40.8763 71.1792 40.7911 71.1792C40.7911 71.094 40.6634 71.0514 40.4078 71.0514C40.1523 71.0514 40.0245 71.094 40.0245 71.1792C40.0245 71.2644 40.0671 71.307 40.1523 71.307H40.4078ZM41.0467 71.0514C41.217 71.0514 41.3022 70.9662 41.3022 70.7957C41.3022 70.7957 41.217 70.7531 41.0467 70.6679C40.9615 70.6679 40.8763 70.6679 40.7911 70.6679C40.7911 70.7531 40.8337 70.7957 40.9189 70.7957C40.9189 70.881 40.9615 70.9662 41.0467 71.0514ZM44.8799 69.5176C44.8799 69.5176 44.8373 69.5602 44.7521 69.6454V69.901H44.8799V69.5176ZM45.7743 69.262C45.6891 69.262 45.4762 69.3472 45.1354 69.5176L45.391 69.3898C45.6465 69.3898 45.7743 69.4324 45.7743 69.5176C45.8595 69.5176 45.9873 69.4324 46.1576 69.262H45.7743ZM50.5019 61.7209C50.6723 61.5505 50.8001 61.38 50.8853 61.2096C50.9704 60.954 50.9279 60.8262 50.7575 60.8262C50.6723 60.8262 50.6297 60.9114 50.6297 61.0818C50.7149 61.2522 50.6297 61.3374 50.3742 61.3374C50.2038 61.2522 50.1186 61.2948 50.1186 61.4653C50.1186 61.6357 49.9908 61.7209 49.7353 61.7209C49.4797 61.4653 49.352 61.4653 49.352 61.7209C49.352 61.8913 49.0538 61.9765 48.4576 61.9765C48.4576 61.9765 48.3724 62.0191 48.202 62.1043C48.1168 62.1895 47.8613 62.36 47.4354 62.6156C47.0095 62.8712 46.7113 62.999 46.541 62.999C46.4558 63.0842 46.3706 63.1268 46.2854 63.1268C46.2854 63.1268 46.2428 63.1695 46.1576 63.2547C46.0724 63.3399 45.9873 63.3825 45.9021 63.3825C45.8169 63.3825 45.7743 63.4251 45.7743 63.5103C45.7743 63.5103 45.7743 63.3825 45.7743 63.1268C45.7743 63.1268 45.7317 63.1695 45.6465 63.2547L45.1354 63.5103C44.8799 63.5103 44.7095 63.6381 44.6243 63.8937C44.5392 63.9789 44.3688 64.0216 44.1132 64.0216C43.9429 64.1068 43.7725 64.2346 43.6022 64.405C43.0911 64.405 42.7929 64.5328 42.7077 64.7884C42.7077 65.0441 42.6651 65.1719 42.58 65.1719V65.0441C42.58 64.8737 42.4948 64.7458 42.3244 64.6606C42.0689 64.6606 41.9411 64.7032 41.9411 64.7884C41.9411 64.9589 41.7707 65.0441 41.43 65.0441C41.2596 65.1293 40.9189 65.2145 40.4078 65.2997C39.9819 65.4701 39.7263 65.6405 39.6412 65.811C39.4708 65.9814 39.5134 66.0666 39.7689 66.0666C39.9393 66.0666 40.0245 65.9814 40.0245 65.811C40.1097 65.7257 40.1523 65.7684 40.1523 65.9388C40.1523 66.024 40.1949 66.1092 40.28 66.1944C40.3652 66.1944 40.4078 66.1518 40.4078 66.0666C40.493 66.0666 40.493 66.0666 40.4078 66.0666C40.4078 65.8962 40.5782 65.7258 40.9189 65.5553C41.3448 65.3849 41.5578 65.3849 41.5578 65.5553C41.5578 65.6405 41.6004 65.6405 41.6855 65.5553C41.6855 65.4701 41.7707 65.3423 41.9411 65.1719C42.1115 65.1719 42.154 65.2145 42.0689 65.2997C41.9837 65.4701 42.2818 65.4275 42.9633 65.1719C43.0485 65.0867 43.1336 65.0441 43.2188 65.0441C43.304 65.0441 43.3892 65.0015 43.4744 64.9163C43.5596 64.9163 43.6447 64.8736 43.7299 64.7884C43.7299 64.7884 43.9429 64.7032 44.3688 64.5328C44.7947 64.4476 45.1354 64.2772 45.391 64.0216C45.4762 64.0216 45.5188 63.9789 45.5188 63.8937C45.6039 63.8937 45.6891 63.8937 45.7743 63.8937H45.9021C45.9021 63.8085 45.9447 63.7659 46.0299 63.7659C46.0299 63.7659 46.115 63.7233 46.2854 63.6381C46.3706 63.5529 46.4984 63.5103 46.6687 63.5103H46.7965C46.8817 63.5103 47.0095 63.4251 47.1798 63.2547C47.265 63.1695 47.4354 63.1268 47.6909 63.1268C47.8613 63.0416 48.0316 62.9564 48.202 62.8712C48.3724 62.7008 48.415 62.6156 48.3298 62.6156C48.2446 62.6156 48.202 62.6156 48.202 62.6156C48.2872 62.5304 48.415 62.4878 48.5853 62.4878C48.9261 62.4026 49.0964 62.2747 49.0964 62.1043C49.0964 62.1043 49.1816 62.1043 49.352 62.1043C49.4372 62.2747 49.6075 62.2321 49.8631 61.9765C49.9483 61.9765 49.9908 61.9765 49.9908 61.9765C49.9908 61.8913 50.0334 61.8487 50.1186 61.8487L50.2464 61.7209C50.2464 61.8913 50.3316 61.8913 50.5019 61.7209ZM53.5685 66.0666L53.4407 66.1944C53.1852 66.45 53.1 66.5779 53.1852 66.5779C53.2704 66.5779 53.313 66.5352 53.313 66.45C53.313 66.45 53.3556 66.3648 53.4407 66.1944L53.5685 66.0666ZM54.8462 65.5553C54.9314 65.4701 54.974 65.3849 54.974 65.2997C54.974 65.2997 54.8888 65.3423 54.7185 65.4275C54.3777 65.5979 54.3352 65.6831 54.5907 65.6831C54.5907 65.6831 54.6759 65.6405 54.8462 65.5553ZM56.7629 64.405C56.7629 64.4902 56.8054 64.5328 56.8906 64.5328C56.8906 64.5328 56.9332 64.4902 57.0184 64.405H56.7629ZM57.7851 57.503C58.211 57.3326 58.8498 56.9065 59.7017 56.2248C60.6387 55.5432 61.1498 55.1171 61.2349 54.9467C61.1498 54.9467 60.8942 55.1597 60.4683 55.5858C59.872 56.0118 59.3183 56.3953 58.8072 56.7361C58.3813 56.9917 58.0832 57.0769 57.9128 56.9917V57.1196C58.0832 57.29 58.0406 57.3752 57.7851 57.3752C57.4443 57.3752 57.061 57.5456 56.6351 57.8864C56.2092 58.1421 55.911 58.2699 55.7407 58.2699L55.6129 58.3977C55.5277 58.3977 55.4851 58.4403 55.4851 58.5255C55.4851 58.6107 55.4425 58.6959 55.3573 58.7811C55.3573 58.7811 55.3573 58.7385 55.3573 58.6533C55.187 58.6533 55.0166 58.7385 54.8462 58.909C54.5907 59.1646 54.4629 59.2498 54.4629 59.1646C54.4629 59.2498 54.4203 59.2924 54.3352 59.2924C54.25 59.3776 54.1648 59.4202 54.0796 59.4202C54.0796 59.4202 54.037 59.4628 53.9518 59.548C53.7815 59.548 53.6537 59.5906 53.5685 59.6758C53.4833 59.7611 53.3981 59.8037 53.313 59.8037C53.1426 59.8037 52.8871 59.9315 52.5463 60.1871C52.2056 60.3575 52.0352 60.4853 52.0352 60.5705C51.8649 60.4001 51.6519 60.4001 51.3964 60.5705C51.226 60.6558 51.1408 60.7836 51.1408 60.954C51.226 61.2948 51.3538 61.3374 51.5241 61.0818C51.8649 60.9114 52.0352 60.8262 52.0352 60.8262C52.2056 60.8262 52.5037 60.741 52.9296 60.5705C53.3556 60.3149 53.5259 60.1445 53.4407 60.0593C53.3556 59.9741 53.3556 59.9315 53.4407 59.9315C53.6111 60.1019 53.8241 60.1019 54.0796 59.9315C54.4203 59.6758 54.5481 59.548 54.4629 59.548C54.4629 59.4628 54.5055 59.4628 54.5907 59.548C54.6759 59.548 54.8037 59.4628 54.974 59.2924C55.0592 59.0368 55.1444 58.909 55.2296 58.909C55.5703 59.0794 55.7407 58.9942 55.7407 58.6533C55.7407 58.4829 55.7833 58.4403 55.8684 58.5255C55.9536 58.5255 56.1666 58.4829 56.5073 58.3977C56.848 58.3125 57.0184 58.1847 57.0184 58.0143L57.7851 57.503ZM58.4239 64.2772H58.2961C58.0406 64.3624 57.998 64.405 58.1684 64.405H58.4239V64.2772ZM66.7292 58.6533C66.7292 58.909 66.5589 59.0794 66.2181 59.1646C66.1329 59.1646 66.0478 59.2072 65.9626 59.2924C65.9626 59.2924 65.92 59.2924 65.8348 59.2924L65.707 59.4202C65.707 59.5054 65.6644 59.548 65.5792 59.548C65.4089 59.548 65.3237 59.5906 65.3237 59.6758C65.2385 59.6758 65.0256 59.8037 64.6848 60.0593C64.4293 60.2297 64.0886 60.4427 63.6626 60.6984C62.896 61.4653 62.2571 61.9339 61.746 62.1043C61.5757 62.2747 61.3627 62.4452 61.1072 62.6156C60.8516 62.786 60.6387 62.9564 60.4683 63.1268C60.1276 63.2973 59.9572 63.3825 59.9572 63.3825L59.8294 63.5103C59.7442 63.6807 60.085 63.5103 60.8516 62.999C61.7034 62.4878 62.5553 61.9339 63.4071 61.3374C63.833 61.0818 64.3015 60.7836 64.8126 60.4427C65.4089 60.0167 65.92 59.6758 66.3459 59.4202C66.6014 59.0794 66.8144 58.8237 66.9848 58.6533C67.1551 58.4829 67.2829 58.3551 67.3681 58.2699L67.2403 58.3977L66.7292 58.6533ZM58.1684 44.8493C58.1684 44.9345 58.211 44.9771 58.2961 44.9771C58.4665 45.0624 58.6795 45.1476 58.935 45.2328C59.1906 45.2328 59.3183 45.1902 59.3183 45.105H59.0628C58.9776 45.105 58.8924 45.105 58.8072 45.105C58.8072 45.0197 58.7646 44.9771 58.6795 44.9771C58.5091 44.9771 58.3813 44.9771 58.2961 44.9771C58.2961 44.8919 58.2535 44.8493 58.1684 44.8493ZM57.6573 44.8493C57.5721 44.9345 57.5721 44.9771 57.6573 44.9771C57.8276 44.9771 57.9128 44.9345 57.9128 44.8493H57.7851H57.6573ZM57.0184 44.7215C56.9332 44.8067 56.9758 44.8493 57.1462 44.8493H57.4017C57.4017 44.7641 57.274 44.7215 57.0184 44.7215ZM56.3795 44.4659C56.2944 44.3807 56.2092 44.3807 56.124 44.4659C56.124 44.5511 56.1666 44.6363 56.2518 44.7215C56.2518 44.7215 56.2944 44.6789 56.3795 44.5937C56.4647 44.5937 56.5073 44.5937 56.5073 44.5937C56.5073 44.5085 56.4647 44.4659 56.3795 44.4659ZM55.1018 44.5937C55.1018 44.5937 55.0592 44.5511 54.974 44.4659C54.974 44.4659 54.9314 44.5085 54.8462 44.5937H54.974C54.974 44.5937 55.0166 44.5937 55.1018 44.5937ZM54.4629 44.2102C54.3777 44.2102 54.3352 44.2529 54.3352 44.3381C54.4203 44.3381 54.5481 44.3381 54.7185 44.3381C54.8888 44.3381 54.974 44.3381 54.974 44.3381C54.974 44.2529 54.9314 44.2102 54.8462 44.2102H54.7185H54.4629ZM50.8853 44.2102C50.7149 44.2955 50.7149 44.3381 50.8853 44.3381C51.0556 44.3381 51.1408 44.2955 51.1408 44.2102H51.013H50.8853ZM49.7353 43.9546C49.5649 44.2103 49.5649 44.3381 49.7353 44.3381C49.8205 44.3381 49.9057 44.2955 49.9908 44.2102H49.8631C49.8631 44.125 49.8631 44.0824 49.8631 44.0824C49.9483 44.0824 49.9908 44.0398 49.9908 43.9546C50.1612 43.9546 50.1612 43.912 49.9908 43.8268C49.8205 43.8268 49.7353 43.8694 49.7353 43.9546ZM48.4576 43.5712C48.2872 43.7416 48.202 43.8694 48.202 43.9546V44.0824C48.2872 44.0824 48.3298 44.0398 48.3298 43.9546C48.3298 43.8694 48.3724 43.7842 48.4576 43.699L48.5853 43.5712C48.5853 43.5712 48.5427 43.5712 48.4576 43.5712ZM44.6243 43.5712C44.6243 43.6564 44.6669 43.699 44.7521 43.699C44.7521 43.699 44.8373 43.7416 45.0077 43.8268C45.2632 43.912 45.391 43.912 45.391 43.8268C45.2206 43.6564 45.0077 43.5712 44.7521 43.5712H44.6243ZM44.241 43.5712C44.1558 43.5712 44.1132 43.6564 44.1132 43.8268C44.1132 44.0824 44.1984 44.0398 44.3688 43.699V43.5712H44.241ZM42.7077 43.4434C42.6226 43.4434 42.5374 43.486 42.4522 43.5712C42.4522 43.5712 42.4948 43.5712 42.58 43.5712C42.58 43.6564 42.6226 43.7416 42.7077 43.8268C42.7077 43.8268 42.7503 43.7416 42.8355 43.5712C42.8355 43.5712 42.7929 43.5286 42.7077 43.4434ZM39.0023 43.5712C39.0023 43.6564 39.0875 43.699 39.2578 43.699C39.343 43.699 39.3856 43.7416 39.3856 43.8268C39.556 43.8268 39.556 43.7416 39.3856 43.5712H38.8745H39.0023ZM35.8079 43.5712C35.8079 43.4008 35.7654 43.3155 35.6802 43.3155C35.6802 43.3155 35.6376 43.4008 35.5524 43.5712H35.6802H35.8079ZM37.0857 43.5712C37.0857 43.7416 37.1709 43.8268 37.3412 43.8268C37.4264 43.8268 37.469 43.7416 37.469 43.5712C37.3838 43.5712 37.3412 43.5712 37.3412 43.5712C37.3412 43.486 37.2986 43.4434 37.2135 43.4434L37.0857 43.5712ZM36.5746 43.8268C36.745 43.8268 36.8301 43.7842 36.8301 43.699H36.7024H36.5746C36.4042 43.7842 36.4042 43.8268 36.5746 43.8268ZM35.8079 38.0751C35.6376 38.0751 35.595 38.0751 35.6802 38.0751C35.7654 38.0751 35.9783 38.1177 36.319 38.203H36.8301H36.319C36.1487 38.1177 35.9783 38.0751 35.8079 38.0751ZM34.5302 38.0751H34.7858H35.0413H34.658H34.5302ZM29.0359 37.5639C28.8656 37.7343 29.1211 37.8195 29.8026 37.8195C30.3137 37.8195 30.5692 37.8621 30.5692 37.9473H32.3581C33.5506 38.1177 34.1469 38.1177 34.1469 37.9473H33.7636C33.5932 37.9473 33.4654 37.9473 33.3802 37.9473C33.3802 37.8621 33.2951 37.8195 33.1247 37.8195C32.8692 37.7343 32.4858 37.6917 31.9747 37.6917C31.5488 37.6917 31.1229 37.6917 30.697 37.6917C30.5266 37.6065 30.2711 37.5639 29.9304 37.5639H29.0359ZM27.7582 43.5712C27.7582 43.6564 27.8008 43.699 27.886 43.699H28.1415C28.1415 43.6138 28.0563 43.5712 27.886 43.5712H27.7582ZM25.9694 43.4434C25.9694 43.3582 25.9268 43.3155 25.8416 43.3155V43.5712C26.012 43.5712 26.0971 43.6138 26.0971 43.699C26.1823 43.699 26.1397 43.6138 25.9694 43.4434ZM24.8194 43.4434C24.7342 43.4434 24.6916 43.486 24.6916 43.5712C24.6916 43.7416 24.7768 43.7416 24.9472 43.5712V43.3155H24.8194V43.4434ZM23.1583 43.5712C23.0732 43.5712 23.0306 43.6138 23.0306 43.699V43.8268C23.0306 43.8268 23.0732 43.7842 23.1583 43.699C23.2435 43.6138 23.2435 43.5712 23.1583 43.5712ZM17.5363 42.9321C17.4511 42.9321 17.4085 43.0173 17.4085 43.1877C17.4085 43.2729 17.4511 43.3582 17.5363 43.4434C17.5363 43.4434 17.5789 43.3582 17.6641 43.1877C17.8344 43.0173 17.7918 42.9321 17.5363 42.9321ZM12.5531 34.2407V34.3685C12.8087 34.6241 12.8513 34.752 12.6809 34.752V34.8798C12.6809 34.8798 12.7661 34.9224 12.9364 35.0076H13.0642V35.1354C13.1494 35.0502 13.3623 35.0928 13.7031 35.2632C14.0438 35.4336 14.2994 35.6041 14.4697 35.7745C14.4697 35.7745 14.5549 35.8171 14.7253 35.9023C14.7253 35.9875 14.7679 36.0301 14.853 36.0301C14.9382 36.0301 14.9808 36.0727 14.9808 36.1579C14.9808 36.1579 15.0234 36.1579 15.1086 36.1579C15.4493 36.1579 15.6197 36.1579 15.6197 36.1579V36.2857H15.7475C15.8326 36.2857 15.8752 36.3283 15.8752 36.4135C15.8752 36.4135 15.9178 36.4135 16.003 36.4135C16.2586 36.4135 16.3863 36.3709 16.3863 36.2857H16.2586C16.0882 36.2857 15.9178 36.2005 15.7475 36.0301C15.4067 35.9449 15.1938 35.9023 15.1086 35.9023C15.0234 35.8171 14.7253 35.6467 14.2142 35.391C14.0438 35.2206 13.8309 35.0928 13.5753 35.0076C13.3198 34.9224 13.1068 34.7946 12.9364 34.6241L12.5531 34.2407ZM61.746 24.9102H61.6183C61.2775 25.0806 61.2349 25.1658 61.4905 25.1658C61.6609 25.1658 61.746 25.1232 61.746 25.038V24.9102ZM62.6405 24.2711C62.8108 24.2711 62.9386 24.2285 63.0238 24.1433C63.109 24.1433 63.1516 24.1007 63.1516 24.0155C62.9812 24.0155 62.8108 24.0581 62.6405 24.1433L62.2571 24.5268L62.6405 24.2711ZM69.9236 25.6771C69.9236 25.6771 69.9662 25.5919 70.0513 25.4215C70.0513 25.4215 69.9662 25.3789 69.7958 25.2937C69.7958 25.2937 69.7958 25.3363 69.7958 25.4215C69.7958 25.5067 69.8384 25.5919 69.9236 25.6771ZM70.4347 25.2937H70.3069H70.5624H70.4347ZM71.7124 20.6923C71.7124 20.7775 71.7124 20.8201 71.7124 20.8201C71.7976 20.7349 71.8402 20.6497 71.8402 20.5645C71.8402 20.4793 71.7976 20.4367 71.7124 20.4367H71.3291C71.0735 20.6923 70.9458 20.8201 70.9458 20.8201C70.9458 20.8201 70.8606 20.8627 70.6902 20.9479C70.605 20.9479 70.4772 20.9479 70.3069 20.9479C70.1365 20.9479 69.9662 20.9906 69.7958 21.0758C69.6254 21.3314 69.4125 21.4592 69.1569 21.4592C68.9014 21.4592 68.7736 21.5018 68.7736 21.587C68.7736 21.587 68.6884 21.6296 68.5181 21.7148C68.3477 21.7148 67.9218 21.9705 67.2403 22.4817C67.0699 22.5669 66.8996 22.6095 66.7292 22.6095C66.644 22.6095 66.5163 22.6521 66.3459 22.7374C66.1755 22.8226 66.0478 22.8652 65.9626 22.8652C65.7922 22.8652 65.4941 22.9504 65.0682 23.1208C64.7274 23.206 64.5145 23.2912 64.4293 23.3764C64.4293 23.5469 64.2589 23.6321 63.9182 23.6321C63.5775 23.8025 63.4071 23.8877 63.4071 23.8877C63.3219 23.9729 63.4071 24.0155 63.6626 24.0155C63.833 24.0155 64.0034 23.9729 64.1737 23.8877C64.3441 23.8025 64.5145 23.7173 64.6848 23.6321L65.4515 23.3764C65.5367 23.3764 65.6218 23.3338 65.707 23.2486C65.7922 23.1634 65.8348 23.1208 65.8348 23.1208C65.92 23.1208 66.0052 23.0782 66.0903 22.993C66.6014 22.8226 66.857 22.7374 66.857 22.7374H66.9848C67.1551 22.7374 67.2403 22.7374 67.2403 22.7374C67.4959 22.7374 67.6236 22.6521 67.6236 22.4817C67.6236 22.3965 67.7088 22.3539 67.8792 22.3539C68.0495 22.3539 68.3477 22.2687 68.7736 22.0983C69.2847 21.8427 69.5402 21.6722 69.5402 21.587C69.5402 21.5018 69.5828 21.4592 69.668 21.4592C69.668 21.4592 69.9662 21.374 70.5624 21.2036L71.3291 20.8201C71.4994 20.7349 71.6272 20.6923 71.7124 20.6923ZM72.479 24.5268C72.8198 24.5268 72.9049 24.4416 72.7346 24.2711H72.479H72.3513C72.1809 24.4416 72.2235 24.5268 72.479 24.5268ZM72.9901 19.9254C73.1605 19.9254 73.5012 19.755 74.0123 19.4142C74.6086 19.0733 74.8216 18.9029 74.6512 18.9029C74.566 18.9029 74.3531 18.9881 74.0123 19.1585C73.6716 19.2438 73.416 19.3716 73.2457 19.542C73.1605 19.542 73.0753 19.5846 72.9901 19.6698C72.8198 19.8402 72.692 19.9254 72.6068 19.9254C72.1809 20.0958 71.9679 20.2663 71.9679 20.4367C71.9679 20.6071 72.0957 20.6071 72.3513 20.4367C72.5216 20.4367 72.6068 20.3515 72.6068 20.1811C72.6068 20.0959 72.6494 20.0532 72.7346 20.0532C72.7346 20.0532 72.8198 20.0106 72.9901 19.9254ZM76.0567 18.136C76.2271 17.9656 76.3974 17.8804 76.5678 17.8804C76.7382 17.7952 76.9085 17.71 77.0789 17.6248L77.3344 17.4969C77.3344 17.3265 77.2067 17.3691 76.9511 17.6248C76.7808 17.7952 76.5252 17.923 76.1845 18.0082C75.8437 18.0934 75.5882 18.2212 75.4178 18.3916C74.9919 18.6473 74.779 18.8177 74.779 18.9029C74.779 18.9881 74.9067 18.9455 75.1623 18.7751C75.503 18.6047 75.8012 18.3917 76.0567 18.136ZM87.9397 8.16647C87.6841 8.16647 87.6415 8.25168 87.8119 8.42209C87.9823 8.76293 88.0674 8.72033 88.0674 8.29428C88.0674 8.20907 88.0249 8.16647 87.9397 8.16647ZM78.8677 5.99361C78.7825 5.99361 78.74 6.03622 78.74 6.12143C78.8251 6.12143 78.9529 6.12143 79.1233 6.12143C79.2936 6.12143 79.3788 6.12143 79.3788 6.12143C79.464 6.03622 79.464 5.99361 79.3788 5.99361H79.1233H78.8677ZM20.9862 22.0983C21.1566 22.0983 21.2417 22.0131 21.2417 21.8427L21.114 21.7148L20.9862 21.8427C20.901 21.9279 20.901 22.0131 20.9862 22.0983ZM55.4851 8.42209C55.4851 8.5073 55.5277 8.5073 55.6129 8.42209C55.6129 8.42209 55.5703 8.37949 55.4851 8.29428C55.4851 8.29428 55.4425 8.33688 55.3573 8.42209H55.4851ZM59.1906 7.52739C59.4461 7.52739 59.5313 7.48478 59.4461 7.39958H59.1906H59.0628C58.9776 7.48478 59.0202 7.52739 59.1906 7.52739ZM59.9572 7.52739C60.0424 7.52739 60.085 7.48478 60.085 7.39958C60.085 7.31436 60.0424 7.27176 59.9572 7.27176C59.872 7.27176 59.8294 7.31436 59.8294 7.39958L59.9572 7.52739ZM61.3627 7.14395C61.3627 7.14395 61.2775 7.10134 61.1072 7.01613C61.022 7.01613 60.9794 7.05874 60.9794 7.14395C61.0646 7.22915 61.1072 7.31436 61.1072 7.39958C61.1072 7.39958 61.1924 7.31437 61.3627 7.14395ZM62.1294 7.01613H62.0016L62.1294 7.14395C62.2145 7.14395 62.2997 7.10134 62.3849 7.01613H62.1294ZM68.2625 6.37706C68.3477 6.37706 68.3903 6.33445 68.3903 6.24924H68.1347C67.6236 6.07882 67.1551 6.07882 66.7292 6.24924C66.4737 6.24924 66.4311 6.33445 66.6014 6.50487C66.7718 6.50487 66.8996 6.46226 66.9848 6.37706H67.7514H68.2625ZM69.4125 5.99361C69.4125 5.99361 69.4551 5.99361 69.5402 5.99361C69.5402 5.99361 69.4977 5.95101 69.4125 5.86579C69.4125 5.86579 69.3699 5.9084 69.2847 5.99361H69.4125ZM70.3069 6.12143C70.5624 6.20664 70.6476 6.20664 70.5624 6.12143C70.3921 5.95101 70.3069 5.86579 70.3069 5.86579C70.1365 5.86579 70.1365 5.95101 70.3069 6.12143ZM72.479 5.99361C72.479 5.9084 72.4364 5.86579 72.3513 5.86579C72.3513 5.86579 72.3513 5.82319 72.3513 5.73798H72.2235C72.2235 5.73798 72.1809 5.78059 72.0957 5.86579C72.0957 5.95101 72.1809 5.99361 72.3513 5.99361H72.479ZM72.8624 5.86579C73.0327 6.03622 73.0753 6.03622 72.9901 5.86579C72.9901 5.78059 72.9049 5.73798 72.7346 5.73798C72.7346 5.73798 72.7772 5.78059 72.8624 5.86579ZM77.4622 2.28698C77.6326 2.37219 77.7604 2.4148 77.8455 2.4148C78.0159 2.4148 78.0159 2.4148 77.8455 2.4148C77.8455 2.32959 77.7604 2.28698 77.59 2.28698C77.4196 2.20177 77.2919 2.20177 77.2067 2.28698H77.4622ZM76.6956 5.86579C76.6956 5.78059 76.653 5.73798 76.5678 5.73798C76.3123 5.73798 76.1419 5.78059 76.0567 5.86579C76.0567 6.03622 76.1419 6.12143 76.3123 6.12143C76.3123 6.12143 76.3974 6.07882 76.5678 5.99361H76.6956C76.7808 5.99361 76.8233 5.99361 76.8233 5.99361C76.8233 5.9084 76.7808 5.86579 76.6956 5.86579ZM71.3291 2.03135C71.0735 2.03135 70.818 2.03135 70.5624 2.03135C70.3921 1.94614 70.2217 1.90354 70.0513 1.90354H69.5402C69.5402 2.4148 69.7532 2.54261 70.1791 2.28698C70.1791 2.11656 70.1365 2.03135 70.0513 2.03135C70.3069 2.03135 70.4347 2.07396 70.4347 2.15916C70.605 2.58521 70.9458 2.62782 71.4568 2.28698C71.542 2.28698 71.5846 2.28698 71.5846 2.28698C71.5846 2.20177 71.6272 2.15916 71.7124 2.15916H71.8402C71.8402 2.24438 72.3087 2.28698 73.2457 2.28698C74.0975 2.28698 74.5234 2.28698 74.5234 2.28698H74.779C74.9493 2.37219 75.3327 2.4148 75.9289 2.4148C76.5252 2.32959 76.653 2.24438 76.3123 2.15916C76.1419 2.07396 75.8437 2.03135 75.4178 2.03135C75.2475 2.11656 75.1197 2.15916 75.0345 2.15916C74.9493 2.15916 74.9493 2.11656 75.0345 2.03135H74.779C74.5234 2.03135 74.3105 1.98875 74.1401 1.90354C73.5438 1.90354 73.2457 1.94614 73.2457 2.03135H71.3291ZM68.6458 0.625389C68.0495 0.625389 67.1551 0.667994 65.9626 0.753205C64.8552 0.838413 63.7052 0.966226 62.5127 1.13665C61.4053 1.22186 60.4257 1.30707 59.5739 1.39228C58.7221 1.47749 58.2961 1.5627 58.2961 1.64791C58.2961 1.81833 58.8072 1.81833 59.8294 1.64791C60.085 1.5627 60.4257 1.52009 60.8516 1.52009C61.2775 1.52009 61.6183 1.47749 61.8738 1.39228C62.8108 1.22186 63.7052 1.13665 64.5571 1.13665C65.4089 1.05144 66.5163 0.966228 67.8792 0.881017C68.5606 0.881017 68.944 0.881017 69.0291 0.881017C69.1995 0.881017 69.2421 0.838413 69.1569 0.753205C69.1569 0.667994 68.9866 0.625389 68.6458 0.625389ZM53.8241 2.54261C53.8241 2.71303 53.9092 2.75563 54.0796 2.67043C54.1648 2.58521 54.3777 2.50001 54.7185 2.4148C55.1444 2.32959 55.5703 2.20177 55.9962 2.03135C57.0184 1.94614 57.6573 1.90354 57.9128 1.90354C58.1684 1.81832 58.211 1.77572 58.0406 1.77572H57.7851C57.5295 1.77572 57.1888 1.81832 56.7629 1.90354C56.4221 1.90354 56.0388 1.94614 55.6129 2.03135C55.187 2.11656 54.8037 2.20177 54.4629 2.28698C54.1222 2.37219 53.9092 2.4574 53.8241 2.54261ZM53.1852 2.4148C52.9296 2.50001 52.7167 2.58521 52.5463 2.67043C52.4611 2.75563 52.5037 2.79824 52.6741 2.79824C52.7593 2.79824 52.8445 2.79824 52.9296 2.79824C53.0148 2.71303 53.1426 2.67043 53.313 2.67043C53.5685 2.67043 53.6963 2.62782 53.6963 2.54261C53.6963 2.4574 53.6111 2.37219 53.4407 2.28698C53.3556 2.28698 53.313 2.32959 53.313 2.4148C53.313 2.4148 53.2704 2.4148 53.1852 2.4148ZM50.2464 3.05387C49.9057 3.22429 49.6501 3.3095 49.4797 3.3095C49.3094 3.3095 49.2668 3.3095 49.352 3.3095H50.1186C50.289 3.3095 50.5019 3.3095 50.7575 3.3095C51.0982 3.22429 51.4815 3.13908 51.9075 3.05387C51.9926 3.05387 52.0352 3.05387 52.0352 3.05387C52.0352 2.96866 52.0778 2.92605 52.163 2.92605L52.2908 2.79824V2.67043C52.2056 2.67043 51.5241 2.79824 50.2464 3.05387ZM48.7131 3.43732C48.5427 3.43732 48.4576 3.47992 48.4576 3.56513C48.4576 3.56513 48.5427 3.60773 48.7131 3.69295C48.7983 3.69295 48.8835 3.65034 48.9687 3.56513C48.9687 3.47992 48.8835 3.43732 48.7131 3.43732ZM25.2027 12.5122C24.6916 12.5122 24.5639 12.64 24.8194 12.8956C24.9046 12.9808 25.075 12.9808 25.3305 12.8956C25.586 12.7252 25.7138 12.5548 25.7138 12.3844C25.7138 12.3844 25.799 12.3844 25.9694 12.3844C26.0545 12.4696 26.3527 12.427 26.8638 12.2565C27.3749 12.0009 27.5878 11.8731 27.5027 11.8731C27.4175 11.7879 27.4601 11.7453 27.6304 11.7453C27.8008 11.9157 28.2267 11.7453 28.9082 11.234C29.3341 11.0636 29.6748 10.9784 29.9304 10.9784C30.1859 10.8932 30.3989 10.808 30.5692 10.7228C30.91 10.6376 31.0377 10.5523 30.9525 10.4671C30.9525 10.2967 30.9951 10.2541 31.0803 10.3393C31.1655 10.5949 31.4211 10.5949 31.847 10.3393C32.1025 10.2541 32.2303 10.1263 32.2303 9.95587C32.2303 9.95587 32.3155 9.95587 32.4858 9.95587C32.571 9.95587 32.784 9.87066 33.1247 9.70024C33.2951 9.61503 33.3802 9.57243 33.3802 9.57243C33.2951 9.82806 33.3802 9.87066 33.6358 9.70024C33.721 9.70024 33.8062 9.65764 33.8913 9.57243L34.0191 9.44461H34.4024C34.658 9.44461 34.9135 9.3168 35.1691 9.06117C35.2543 8.97596 35.3394 8.93335 35.4246 8.93335C35.2543 9.18898 35.382 9.18898 35.8079 8.93335C36.1487 8.93335 36.319 8.84814 36.319 8.67772C36.319 8.5073 36.4042 8.5073 36.5746 8.67772C36.745 8.67772 36.7875 8.63512 36.7024 8.54991C36.7024 8.54991 36.7024 8.5073 36.7024 8.42209C36.8727 8.59251 37.2561 8.59251 37.8523 8.42209C38.5338 8.25168 38.8745 8.12386 38.8745 8.03865C38.8745 7.95344 39.0023 7.91083 39.2578 7.91083C39.2578 7.91083 39.343 7.91083 39.5134 7.91083H39.6412C39.6412 7.74041 39.7689 7.6552 40.0245 7.6552H40.6634C40.8337 7.48479 41.0041 7.39958 41.1745 7.39958C41.43 7.39958 41.643 7.35697 41.8133 7.27176C42.2392 7.10134 42.4948 7.01613 42.58 7.01613C42.7503 6.93092 42.9633 6.84571 43.2188 6.7605C43.5596 6.7605 43.7299 6.7179 43.7299 6.63269C43.6447 6.46227 43.6447 6.41966 43.7299 6.50487C43.8151 6.59008 44.0707 6.54748 44.4966 6.37706C45.0077 6.20664 45.2632 6.12143 45.2632 6.12143C45.2632 6.12143 45.3484 6.12143 45.5188 6.12143C45.6039 6.03622 45.7317 5.99361 45.9021 5.99361C46.1576 5.99361 46.3706 5.95101 46.541 5.86579C46.7965 5.86579 47.0095 5.86579 47.1798 5.86579C47.3502 5.78059 47.478 5.73798 47.5631 5.73798C47.6483 5.65277 47.7761 5.65277 47.9465 5.73798C47.9465 5.73798 48.0316 5.69538 48.202 5.61017L48.4576 5.48235H48.7131C48.8835 5.48235 49.0112 5.43975 49.0964 5.35454C49.5223 5.18412 49.8205 5.09891 49.9908 5.09891C50.2464 5.0137 50.7149 4.92849 51.3964 4.84328C51.6519 4.75807 51.95 4.67286 52.2908 4.58765C52.6315 4.50244 52.9296 4.45984 53.1852 4.45984C53.3556 4.37462 53.5259 4.37462 53.6963 4.45984C53.8667 4.45984 53.9944 4.45984 54.0796 4.45984C54.0796 4.45984 54.1222 4.37463 54.2074 4.2042C54.2074 4.2042 54.25 4.2042 54.3352 4.2042C54.5907 4.2042 54.7611 4.1616 54.8462 4.07639C55.1018 4.07639 55.3999 3.99118 55.7407 3.82076C56.1666 3.82076 56.5073 3.82076 56.7629 3.82076C57.0184 3.73555 57.2739 3.65034 57.5295 3.56513C57.6999 3.39471 57.8276 3.3095 57.9128 3.3095C57.998 3.3095 57.998 3.35211 57.9128 3.43732C57.9128 3.52252 57.9554 3.52252 58.0406 3.43732C58.1258 3.35211 58.2536 3.3095 58.4239 3.3095C58.5091 3.39471 58.6369 3.43732 58.8072 3.43732C58.9776 3.43732 59.0628 3.39471 59.0628 3.3095C59.2332 3.22429 59.3609 3.18168 59.4461 3.18168C59.5313 3.18168 59.5313 3.22429 59.4461 3.3095C59.3609 3.39471 59.4035 3.39471 59.5739 3.3095H59.9572H60.2127C60.2127 3.22429 60.2979 3.09647 60.4683 2.92605C60.5535 3.09647 60.5961 3.18168 60.5961 3.18168C60.4257 3.35211 60.6387 3.3095 61.2349 3.05387C61.6609 2.88345 61.959 2.88345 62.1294 3.05387C62.1294 3.13908 62.1294 3.18168 62.1294 3.18168C62.2145 3.18168 62.2571 3.09647 62.2571 2.92605C62.2571 2.75564 62.3423 2.67043 62.5127 2.67043C62.5979 2.67043 62.6405 2.71303 62.6405 2.79824C62.6405 2.96866 62.683 3.05387 62.7682 3.05387C62.7682 3.05387 62.8534 2.96866 63.0238 2.79824C63.109 2.62782 63.1941 2.54261 63.2793 2.54261C63.4497 2.4574 63.5349 2.50001 63.5349 2.67043C63.5349 2.84085 63.6201 2.84085 63.7904 2.67043C63.9608 2.50001 64.0886 2.50001 64.1737 2.67043C64.3441 2.75563 64.4719 2.75563 64.5571 2.67043C64.7274 2.50001 64.8126 2.4574 64.8126 2.54261C64.8978 2.71303 64.983 2.79824 65.0682 2.79824C65.1533 2.79824 65.1959 2.71303 65.1959 2.54261C65.3663 2.71303 65.5367 2.75563 65.707 2.67043L65.8348 2.54261C65.92 2.62782 66.0903 2.58522 66.3459 2.4148C66.4311 2.24437 66.4737 2.15916 66.4737 2.15916C66.5589 2.07396 66.5589 2.11656 66.4737 2.28698C66.3885 2.37219 66.3459 2.4574 66.3459 2.54261V2.67043C66.4311 2.67043 66.5163 2.62782 66.6014 2.54261C66.6866 2.4574 66.857 2.4148 67.1125 2.4148H67.8792C68.1347 2.32959 68.3051 2.32959 68.3903 2.4148C68.3903 2.58522 68.4329 2.58522 68.5181 2.4148C68.2625 2.15917 68.3903 2.15917 68.9014 2.4148C69.0717 2.50001 69.1569 2.50001 69.1569 2.4148C69.1569 2.32959 69.2421 2.28698 69.4125 2.28698C69.4977 2.37219 69.5402 2.32959 69.5402 2.15916C69.4551 2.07396 69.0717 2.03135 68.3903 2.03135C67.794 2.03135 66.9848 2.03135 65.9626 2.03135C65.0256 2.03135 64.4719 2.07396 64.3015 2.15916C64.2163 2.24438 64.046 2.28698 63.7904 2.28698C63.5349 2.20177 63.2793 2.20177 63.0238 2.28698C62.2571 2.4574 61.6609 2.58521 61.2349 2.67043C60.809 2.67043 60.3405 2.67043 59.8294 2.67043C59.3183 2.84085 58.8498 2.92605 58.4239 2.92605C57.9128 3.09647 57.6573 3.22429 57.6573 3.3095H57.1462C56.8054 3.3095 56.5925 3.35211 56.5073 3.43732C56.2518 3.60774 56.2092 3.60774 56.3795 3.43732C56.5499 3.26689 56.5073 3.22429 56.2518 3.3095C56.1666 3.3095 55.9962 3.35211 55.7407 3.43732C55.5703 3.43732 55.3999 3.43732 55.2296 3.43732C54.974 3.52252 54.7611 3.60773 54.5907 3.69295C54.4203 3.77815 54.25 3.86336 54.0796 3.94857C53.9092 4.11899 53.8241 4.11899 53.8241 3.94857C53.8241 3.86336 53.6963 3.82076 53.4407 3.82076C53.2704 3.82076 53.1 3.86336 52.9296 3.94857C52.9296 4.03379 52.8019 4.07639 52.5463 4.07639C52.376 4.07639 52.163 4.20421 51.9075 4.45984H51.7797C51.8649 4.37462 51.8223 4.33202 51.6519 4.33202C51.4815 4.41723 51.2686 4.45984 51.013 4.45984H50.8853C50.9704 4.63025 50.9279 4.71546 50.7575 4.71546C50.5871 4.71546 50.4168 4.63025 50.2464 4.45984C50.1612 4.45984 50.1612 4.50244 50.2464 4.58765C50.3316 4.67286 50.3316 4.75807 50.2464 4.84328C50.2464 4.84328 50.2038 4.75807 50.1186 4.58765C50.0334 4.50244 49.9057 4.45984 49.7353 4.45984C49.5649 4.45984 49.5223 4.54505 49.6075 4.71546C49.6075 4.88588 49.5223 4.97109 49.352 4.97109C49.2668 5.0563 49.2242 5.0137 49.2242 4.84328C49.139 4.84328 49.0112 4.88588 48.8409 4.97109C48.415 5.14151 48.202 5.18412 48.202 5.09891C48.202 4.84328 48.0316 4.88588 47.6909 5.22672C47.265 5.39714 47.052 5.43975 47.052 5.35454C47.052 5.26933 46.9669 5.26933 46.7965 5.35454C46.6261 5.43975 46.5835 5.56756 46.6687 5.73798L46.4132 5.61017C46.328 5.52496 46.0299 5.52496 45.5188 5.61017C45.2632 5.8658 45.1354 5.95101 45.1354 5.86579C45.2206 5.86579 45.2206 5.9084 45.1354 5.99361C45.0503 5.99361 44.9225 5.99361 44.7521 5.99361C44.4114 5.99361 44.1984 6.03622 44.1132 6.12143C44.1132 6.46227 43.9003 6.50487 43.4744 6.24924C43.0485 6.24924 42.8355 6.33445 42.8355 6.50487C42.7503 6.59008 42.6226 6.67529 42.4522 6.7605C42.2818 6.7605 41.8985 6.80311 41.3022 6.88831C41.217 6.88831 41.0893 6.93092 40.9189 7.01613C40.8337 7.01613 40.7485 7.01613 40.6634 7.01613C40.4078 7.18655 40.28 7.18655 40.28 7.01613H40.1523C40.0671 7.01613 39.9819 7.05874 39.8967 7.14395C39.7263 7.31437 39.5986 7.39958 39.5134 7.39958H39.3856C39.3856 7.31436 39.3004 7.35697 39.1301 7.52739C38.9597 7.69781 38.8745 7.69781 38.8745 7.52739H38.7467C38.6616 7.52739 38.619 7.56999 38.619 7.6552C38.619 7.6552 38.5764 7.6552 38.4912 7.6552C38.3208 7.82562 38.1079 7.91083 37.8523 7.91083C37.8523 7.82563 37.8097 7.82563 37.7246 7.91083C37.7246 7.91083 37.7246 7.95344 37.7246 8.03865C37.7246 8.12386 37.5968 8.16647 37.3412 8.16647C37.0005 8.16647 36.8301 8.16647 36.8301 8.16647H36.5746H36.4468C36.4468 8.33688 36.319 8.42209 36.0635 8.42209C35.808 8.42209 35.5098 8.5073 35.1691 8.67772C34.9987 8.76293 34.8284 8.84814 34.658 8.93335C34.5728 8.93335 34.4876 8.97596 34.4024 9.06117C34.2321 9.06117 33.8062 9.14638 33.1247 9.3168C32.9543 9.40201 32.7414 9.48722 32.4858 9.57243C32.3155 9.65764 32.1877 9.70024 32.1025 9.70024C31.847 9.70024 31.634 9.78545 31.4636 9.95587C31.2933 10.1263 31.1229 10.2115 30.9525 10.2115C30.697 10.2115 30.5692 10.2541 30.5692 10.3393C30.3989 10.5097 30.2711 10.5949 30.1859 10.5949C29.9304 10.5097 29.7174 10.5523 29.547 10.7228C29.547 10.4671 29.4193 10.4671 29.1637 10.7228C29.1637 10.808 29.0359 10.8506 28.7804 10.8506C28.5248 10.8506 28.3971 10.9358 28.3971 11.1062C28.3971 11.2766 28.3545 11.3618 28.2693 11.3618C28.1841 11.3618 28.1415 11.3192 28.1415 11.234C28.1415 11.1488 27.673 11.3192 26.736 11.7453C26.3953 11.8305 26.0971 11.9583 25.8416 12.1287C25.586 12.2139 25.5009 12.2565 25.586 12.2565C25.586 12.427 25.4583 12.5122 25.2027 12.5122ZM18.5585 15.5797C18.5585 15.5797 18.5159 15.6223 18.4307 15.7075C18.4307 15.7927 18.6437 15.7927 19.0696 15.7075C19.4955 15.5371 19.8362 15.3667 20.0918 15.1963L20.4751 14.8128C20.6455 14.6424 20.8158 14.5572 20.9862 14.5572C21.2417 14.5572 21.4547 14.472 21.6251 14.3016C21.7954 14.1312 21.9658 14.0459 22.1361 14.0459C22.3065 14.0459 22.775 13.8755 23.5417 13.5347C24.3083 13.1938 24.6916 12.9808 24.6916 12.8956H24.5639C24.3935 12.8104 24.2231 12.8104 24.0528 12.8956C23.8824 12.9808 23.7546 13.066 23.6694 13.1512C23.5843 13.2365 23.3713 13.2791 23.0306 13.2791C22.775 13.3643 22.5195 13.4921 22.2639 13.6625C22.0084 13.7477 21.8806 13.8329 21.8806 13.9181C21.7954 14.0033 21.6676 14.0459 21.4973 14.0459C21.4121 14.0459 21.2843 14.0886 21.114 14.1738C21.0288 14.259 20.901 14.3442 20.7306 14.4294C20.5603 14.5998 20.3899 14.685 20.2195 14.685C20.2195 14.5998 20.0918 14.685 19.8362 14.9406C19.6659 15.1111 19.5807 15.1537 19.5807 15.0685H19.3251C19.3251 15.0685 19.1548 15.1537 18.814 15.3241C18.7288 15.3241 18.6863 15.3667 18.6863 15.4519C18.7714 15.4519 18.7714 15.4945 18.6863 15.5797C18.6863 15.5797 18.6437 15.5797 18.5585 15.5797ZM17.153 16.3466C16.7271 16.517 16.3437 16.7301 16.003 16.9857C15.6623 17.1561 15.4919 17.3265 15.4919 17.4969C15.4919 17.5822 15.5771 17.5396 15.7475 17.3691C15.8326 17.1135 15.9604 16.9857 16.1308 16.9857C16.3011 17.0709 16.6845 16.9431 17.2807 16.6022C17.9622 16.1762 18.3029 15.9206 18.3029 15.8354C18.2178 15.8354 17.8344 16.0058 17.153 16.3466ZM14.7253 17.7526C14.7253 17.8378 14.8105 17.8804 14.9808 17.8804C15.066 17.8804 15.1512 17.8378 15.2364 17.7526V17.6248V17.4969H14.9808L14.7253 17.7526ZM13.8309 18.3916C13.6605 18.4769 13.4901 18.5621 13.3198 18.6473C13.2346 18.7325 13.1068 18.8177 12.9364 18.9029C12.7661 18.9881 12.6383 19.0733 12.5531 19.1585C12.5531 19.329 13.0216 19.1159 13.9586 18.5195L14.3419 18.136L13.8309 18.3916ZM12.042 19.542C12.042 19.968 12.1272 19.9254 12.2976 19.4142C12.3827 19.4142 12.4253 19.4142 12.4253 19.4142C12.4253 19.329 12.3827 19.2864 12.2976 19.2864L12.042 19.542ZM11.7865 30.6619C11.1902 31.6844 11.105 32.4939 11.5309 33.0904C11.7865 33.346 11.8291 33.4738 11.6587 33.4738C11.5735 33.4738 11.6161 33.559 11.7865 33.7294C12.042 33.8999 12.2124 33.9851 12.2976 33.9851C12.3827 33.9851 12.3827 33.8572 12.2976 33.6016C11.6161 32.4087 11.8717 30.9175 13.0642 29.1281C14.3419 27.2535 16.3437 25.2937 19.0696 23.2486C19.5807 22.9078 19.8362 22.7374 19.8362 22.7374C19.8362 22.7374 19.6233 22.8226 19.1974 22.993C19.027 23.0782 18.8566 23.206 18.6863 23.3764L18.5585 23.5042C18.3881 23.5042 18.2178 23.5895 18.0474 23.7599C17.877 23.9303 17.3659 24.3563 16.5141 25.038C16.3437 25.2084 16.1308 25.3789 15.8752 25.5493C15.7049 25.6345 15.5771 25.6771 15.4919 25.6771C15.4919 25.6771 15.4919 25.7197 15.4919 25.8049C15.4919 25.8049 15.4493 25.8475 15.3641 25.9327C15.279 25.9327 15.2364 25.9753 15.2364 26.0605C15.2364 26.231 15.1086 26.3162 14.853 26.3162C14.7679 26.3162 14.6827 26.3588 14.5975 26.444C14.7679 26.6144 14.7679 26.6996 14.5975 26.6996C14.4271 26.6996 14.2142 26.8274 13.9586 27.0831C13.7883 27.2535 13.7031 27.4239 13.7031 27.5943C13.7031 27.6795 13.6605 27.7221 13.5753 27.7221C13.4901 27.7221 13.4475 27.7647 13.4475 27.8499C13.4475 27.9352 13.3198 28.1056 13.0642 28.3612C12.8087 28.6168 12.6809 28.7873 12.6809 28.8725C12.6809 28.9577 12.6383 29.0003 12.5531 29.0003H12.2976C12.1272 29.0855 12.042 29.1281 12.042 29.1281C12.1272 29.1281 12.255 29.0855 12.4253 29.0003C12.4253 29.0003 12.4253 29.0429 12.4253 29.1281C12.4253 29.3837 12.3827 29.5115 12.2976 29.5115C12.1272 29.5115 12.042 29.5968 12.042 29.7672C11.9568 29.9376 11.9142 30.108 11.9142 30.2784C11.9142 30.3636 11.8717 30.4915 11.7865 30.6619ZM3.22562 26.8274C3.22562 26.8274 2.79971 27.5517 1.94789 29.0003C1.60716 29.8524 1.43679 30.2784 1.43679 30.2784C1.26643 30.5341 1.35161 30.6619 1.69234 30.6619C2.11825 30.6619 2.16084 30.5767 1.82011 30.4062C1.73493 30.321 1.77752 30.2784 1.94789 30.2784C2.03307 30.2784 2.07566 30.2784 2.07566 30.2784C2.16084 30.1932 2.16084 30.1506 2.07566 30.1506C2.07566 30.1506 2.11825 30.108 2.20343 30.0228C2.28862 30.0228 2.33121 29.9376 2.33121 29.7672C2.33121 29.5115 2.3738 29.3411 2.45898 29.2559C2.62935 29.0855 2.79971 28.8299 2.97008 28.489C3.14044 28.1482 3.22562 27.85 3.22562 27.5943C3.31081 27.4239 3.3534 27.2109 3.3534 26.9552C3.43858 26.6996 3.52376 26.5292 3.60895 26.444C3.77931 26.1031 3.8219 25.9327 3.73672 25.9327C3.65154 25.9327 3.52376 26.0179 3.3534 26.1884C3.26822 26.3588 3.26822 26.5292 3.3534 26.6996L3.22562 26.8274ZM21.3695 44.4659C21.1991 44.5511 21.1566 44.5085 21.2417 44.3381C21.2417 44.2529 21.2417 44.2102 21.2417 44.2102C21.3269 44.2102 21.3695 44.1676 21.3695 44.0824V44.2102C21.3695 44.2102 21.3695 44.2955 21.3695 44.4659ZM83.4676 7.91083C83.4676 7.91083 83.4676 7.86823 83.4676 7.78302C83.4676 7.69781 83.5102 7.6552 83.5954 7.6552C83.5954 7.6552 83.638 7.69781 83.7231 7.78302C83.7231 7.86823 83.638 7.91083 83.4676 7.91083ZM15.6197 43.699C15.6197 43.699 15.5345 43.7416 15.3641 43.8268V43.699C15.3641 43.6138 15.4067 43.5712 15.4919 43.5712C15.4919 43.5712 15.5345 43.6138 15.6197 43.699ZM14.853 43.4434V43.3155V43.4434C14.9382 43.5286 14.9382 43.5712 14.853 43.5712V43.4434ZM38.8745 54.1798C39.2153 54.3502 39.1727 54.4354 38.7467 54.4354C38.6616 54.4354 38.619 54.3928 38.619 54.3076C38.619 54.2224 38.7042 54.1798 38.8745 54.1798ZM62.6405 45.9997C62.7256 45.9997 62.8108 46.0423 62.896 46.1275C62.7256 46.2979 62.6405 46.3831 62.6405 46.3831C62.6405 46.3831 62.5979 46.2979 62.5127 46.1275C62.5127 46.1275 62.5553 46.0849 62.6405 45.9997ZM24.3083 44.3381C24.3083 44.4233 24.2657 44.5085 24.1805 44.5937C24.0102 44.5937 23.925 44.5085 23.925 44.3381C23.925 44.3381 24.0102 44.2955 24.1805 44.2102L24.3083 44.3381ZM23.1583 44.3381C23.1583 44.3381 23.2009 44.2955 23.2861 44.2102C23.3713 44.2102 23.4139 44.2529 23.4139 44.3381V44.5937L23.1583 44.3381ZM22.5195 44.4659C22.5195 44.4659 22.4343 44.5085 22.2639 44.5937C22.2639 44.5937 22.2639 44.5511 22.2639 44.4659C22.2639 44.3807 22.3065 44.2955 22.3917 44.2102C22.4769 44.2102 22.5195 44.2955 22.5195 44.4659ZM24.8194 44.5937C24.7342 44.6789 24.6916 44.6363 24.6916 44.4659V44.2102C24.6916 44.2102 24.7342 44.2529 24.8194 44.3381V44.5937ZM20.3473 44.4659C20.3473 44.4659 20.3047 44.3807 20.2195 44.2102C20.2195 44.2102 20.2621 44.1676 20.3473 44.0824L20.4751 44.2102C20.4751 44.3807 20.4325 44.4659 20.3473 44.4659Z" fill="white"/>
</svg>
