<svg width="61" height="75" viewBox="0 0 61 75" fill="none" xmlns="http://www.w3.org/2000/svg">
<path d="M32.3739 22.1215C34.2256 12.1438 40.8047 4.67694 51.2893 0.654455C52.524 0.180555 52.7218 0.142903 52.6236 0.39967C52.5869 0.495922 52.5567 8.35206 52.5567 17.8584V35.1418L51.5924 35.3836C47.1895 36.4862 41.6523 40.0283 38.6173 43.6842C30.8337 53.0588 32.0743 66.8727 41.2556 73.0657C41.6822 73.3536 42.0786 73.6284 42.1365 73.6763C42.2445 73.766 41.3561 74.758 41.1676 74.758C40.9162 74.758 38.3433 72.7353 37.5809 71.9381C35.3683 69.6249 33.2683 65.4125 32.4972 61.741C32.0889 59.7979 32.0466 57.6002 32.0827 40.2007L32.1174 23.5024L32.3739 22.1215Z" fill="white"/>
<path d="M56.3866 12.2426C57.2398 11.6835 58.4855 11.0836 59.5554 10.7165C60.0401 10.55 60.5237 10.4102 60.6298 10.4059C60.8127 10.3988 60.8228 11.2105 60.8228 25.9631V41.5276L59.3624 41.544C47.0712 41.6816 36.4574 52.6818 38.6531 63.0068C39.4394 66.7045 41.9181 70.4453 44.6047 71.9885C44.763 72.0796 44.7336 72.1467 44.3807 72.504L43.9747 72.915L43.3449 72.4819C33.6673 65.8235 33.7719 50.9911 43.5523 43.116C46.8303 40.4764 51.8796 38.0789 55.2845 37.5453L55.7529 37.472V25.0648V12.6579L56.3866 12.2426Z" fill="white"/>
<path d="M42.1796 55.7352C44.8981 50.0161 50.0366 46.2266 56.7235 45.0099C57.8896 44.7976 60.5934 44.7441 60.7785 44.9298C60.8206 44.972 60.7661 45.6542 60.6578 46.4463L60.4608 47.8861L60.063 47.8878C53.5666 47.9162 46.4926 52.2956 44.1722 57.7256C42.3599 61.9664 43.4262 67.0975 46.6979 69.8809L47.2115 70.3177L46.8317 70.7132C46.3007 71.266 46.2857 71.2592 44.8558 69.8095C41.1538 66.0557 40.0452 60.2256 42.1796 55.7352Z" fill="white"/>
<path d="M46.3673 60.2763C47.7952 55.714 51.8539 52.5261 57.5714 51.4761C57.9957 51.3979 58.556 51.3297 58.8165 51.3243L59.2899 51.3144L59.2137 51.7289C58.9228 53.3156 58.5707 54.0737 58.1227 54.0774C57.0663 54.0862 53.8634 55.2143 52.4941 56.0599C48.2371 58.6884 46.7205 63.6222 49.0409 67.2934L49.3747 67.8213L49.0093 68.2197C48.8084 68.4388 48.6267 68.6437 48.6056 68.6746C48.4368 68.9223 46.7129 66.394 46.369 65.3944C45.9864 64.2824 45.9852 61.4967 46.3673 60.2763Z" fill="white"/>
<path d="M28.9409 22.1215C27.0892 12.1438 20.5101 4.67694 10.0255 0.654455C8.79081 0.180555 8.59302 0.142903 8.69121 0.39967C8.72789 0.495922 8.75808 8.35206 8.75808 17.8584V35.1418L9.72245 35.3836C14.1254 36.4862 19.6625 40.0283 22.6976 43.6842C30.4812 53.0588 29.2406 66.8727 20.0592 73.0657C19.6326 73.3536 19.2362 73.6284 19.1783 73.6763C19.0703 73.766 19.9588 74.758 20.1472 74.758C20.3986 74.758 22.9715 72.7353 23.7339 71.9381C25.9465 69.6249 28.0465 65.4125 28.8176 61.741C29.2259 59.7979 29.2682 57.6002 29.2321 40.2007L29.1974 23.5024L28.9409 22.1215Z" fill="white"/>
<path d="M4.92821 12.2426C4.075 11.6835 2.82932 11.0836 1.75941 10.7165C1.27468 10.55 0.791082 10.4102 0.684996 10.4059C0.502165 10.3988 0.492006 11.2105 0.492006 25.9631V41.5276L1.9524 41.544C14.2436 41.6816 24.8574 52.6818 22.6617 63.0068C21.8754 66.7045 19.3967 70.4453 16.7101 71.9885C16.5518 72.0796 16.5812 72.1467 16.9341 72.504L17.3402 72.915L17.9699 72.4819C27.6476 65.8235 27.5429 50.9911 17.7625 43.116C14.4845 40.4764 9.43523 38.0789 6.03028 37.5453L5.56191 37.472V25.0648V12.6579L4.92821 12.2426Z" fill="white"/>
<path d="M19.1352 55.7352C16.4167 50.0161 11.2782 46.2266 4.59132 45.0099C3.42521 44.7976 0.721388 44.7441 0.536299 44.9298C0.494259 44.972 0.548717 45.6542 0.657063 46.4463L0.853998 47.8861L1.25183 47.8878C7.74827 47.9162 14.8223 52.2956 17.1426 57.7256C18.9549 61.9664 17.8886 67.0975 14.6169 69.8809L14.1034 70.3177L14.4831 70.7132C15.0141 71.266 15.0291 71.2592 16.459 69.8095C20.1611 66.0557 21.2696 60.2256 19.1352 55.7352Z" fill="white"/>
<path d="M14.9475 60.2763C13.5196 55.714 9.4609 52.5261 3.74347 51.4761C3.31912 51.3979 2.75878 51.3297 2.49836 51.3243L2.02491 51.3144L2.10109 51.7289C2.39199 53.3156 2.74411 54.0737 3.19216 54.0774C4.24852 54.0862 7.45145 55.2143 8.82071 56.0599C13.0777 58.6884 14.5943 63.6222 12.2739 67.2934L11.9401 67.8213L12.3055 68.2197C12.5064 68.4388 12.6881 68.6437 12.7093 68.6746C12.878 68.9223 14.6019 66.394 14.9458 65.3944C15.3284 64.2824 15.3296 61.4967 14.9475 60.2763Z" fill="white"/>
</svg>
