<svg width="31" height="31" viewBox="0 0 31 31" fill="none" xmlns="http://www.w3.org/2000/svg">
<g clip-path="url(#clip0_64_99)">
<path d="M30.3869 12.0384C30.2742 11.5787 29.8099 11.2316 29.4674 11.2316L20.5792 9.96058L16.6579 1.88366C16.1982 1.07687 14.9271 1.07687 14.4674 1.88366L10.5416 9.96058L1.54071 11.2316C1.08097 11.2316 0.733916 11.5787 0.621236 12.0384C0.504048 12.4981 0.621236 12.9624 0.963784 13.3094L7.42712 19.5384L5.92622 28.4221C5.81354 28.8864 6.04341 29.3461 6.39047 29.576C6.73301 29.8058 7.30994 29.923 7.65699 29.6932L15.6212 25.5375L23.581 29.6932C23.8108 29.8058 23.928 29.8058 24.1579 29.8058C24.3878 29.8058 24.6176 29.6932 24.852 29.576C25.1946 29.3461 25.4289 28.8864 25.3117 28.4221L23.8108 19.5384L30.2742 13.3094C30.504 12.9624 30.6212 12.3855 30.3869 12.0384ZM20.1194 17.8076H16.6579V21.2692H14.3502V17.8076H10.8887V15.4999H14.3502V12.0384H16.6579V15.4999H20.1194V17.8076Z" fill="white"/>
</g>
<defs>
<clipPath id="clip0_64_99">
<rect width="30" height="30" fill="white" transform="translate(0.504028 0.5)"/>
</clipPath>
</defs>
</svg>
