<svg width="19" height="18" viewBox="0 0 19 18" fill="none" xmlns="http://www.w3.org/2000/svg">
<path d="M18.3023 6.95786C18.2347 6.68202 17.9562 6.47378 17.7506 6.47378L12.4177 5.71116L10.065 0.865009C9.78911 0.380934 9.02649 0.380934 8.75065 0.865009L6.39518 5.71116L0.994639 6.47378C0.718797 6.47378 0.510564 6.68202 0.442956 6.95786C0.372644 7.2337 0.442956 7.51224 0.648485 7.72048L4.52649 11.4579L3.62595 16.7881C3.55834 17.0666 3.69626 17.3425 3.90449 17.4804C4.11002 17.6183 4.45618 17.6886 4.66441 17.5507L9.44296 15.0573L14.2188 17.5507C14.3567 17.6183 14.427 17.6183 14.565 17.6183C14.7029 17.6183 14.8408 17.5507 14.9814 17.4804C15.1869 17.3425 15.3276 17.0666 15.2573 16.7881L14.3567 11.4579L18.2347 7.72048C18.3726 7.51224 18.443 7.16609 18.3023 6.95786ZM12.1419 10.4194H10.065V12.4963H8.68034V10.4194H6.60341V9.03478H8.68034V6.95786H10.065V9.03478H12.1419V10.4194Z" fill="white"/>
</svg>
