<svg width="39" height="41" viewBox="0 0 39 41" fill="none" xmlns="http://www.w3.org/2000/svg">
<path fill-rule="evenodd" clip-rule="evenodd" d="M19.3965 32.9301C14.9477 32.9301 10.9941 30.8245 8.43481 27.5536L8.84805 25.4248C9.0377 24.4461 9.73041 23.6518 10.6667 23.3343C12.4743 22.7214 15.7093 21.8425 19.3995 21.8425C23.0917 21.8425 26.3287 22.7224 28.1353 23.3353C29.0696 23.6528 29.7613 24.4481 29.95 25.4248L30.3612 27.5496C27.8019 30.8225 23.8463 32.9301 19.3965 32.9301ZM14.3908 13.7787C14.3908 10.9957 16.6256 8.73889 19.3815 8.73889C22.1374 8.73889 24.3723 10.9957 24.3723 13.7787V14.4984C24.3723 17.2814 22.2332 20.258 19.3815 20.258C16.5298 20.258 14.3908 17.2814 14.3908 14.4984V13.7787Z" fill="white"/>
</svg>
