<svg width="22" height="21" viewBox="0 0 22 21" fill="none" xmlns="http://www.w3.org/2000/svg">
<path d="M11.2641 0.0859375C7.58767 0.0859375 6.06407 2.44414 6.06407 5.28594C6.06407 6.24274 6.52111 7.20378 6.52111 7.20378C6.33737 7.30951 6.0352 7.64514 6.11147 8.24141C6.2536 9.35334 6.73566 9.6365 7.04246 9.6599C7.15946 10.6973 8.27407 12.0243 8.66407 12.2176V13.9509C7.79741 16.5509 0.864075 14.8176 0.864075 20.8842H21.6641C21.6641 14.8176 14.7307 16.5509 13.8641 13.9509V12.2176C14.2541 12.0243 15.3687 10.6973 15.4857 9.6599C15.7925 9.6365 16.2745 9.35334 16.4167 8.24141C16.4929 7.64427 16.1908 7.30951 16.007 7.20378C16.007 7.20378 16.4641 6.33547 16.4641 5.28594C16.4641 3.18167 15.6381 1.38594 13.8641 1.38594C13.8641 1.38594 13.2479 0.0859375 11.2641 0.0859375Z" fill="white"/>
</svg>
