<svg width="28" height="27" viewBox="0 0 28 27" fill="none" xmlns="http://www.w3.org/2000/svg">
<path d="M2.89217 0.28479C2.30802 0.28479 1.7478 0.516842 1.33474 0.929898C0.921688 1.34295 0.689636 1.90318 0.689636 2.48733V9.09494C0.690353 9.55112 0.832696 9.99582 1.09701 10.3676C1.36132 10.7394 1.73455 11.02 2.16516 11.1706C2.39864 11.2535 2.64442 11.2964 2.89217 11.2975C2.90006 11.2975 2.90795 11.2975 2.91583 11.2975L16.1074 13.5L2.91583 15.7047C2.90795 15.7039 2.90006 15.7032 2.89217 15.7026C2.6437 15.7034 2.39717 15.7463 2.16301 15.8295C1.7328 15.9804 1.36003 16.2611 1.09613 16.6329C0.832226 17.0047 0.690196 17.4492 0.689636 17.9051V24.5127C0.689636 25.0968 0.921688 25.6571 1.33474 26.0701C1.7478 26.4832 2.30802 26.7152 2.89217 26.7152C3.27565 26.7145 3.65229 26.6137 3.98484 26.4227H3.98699L26.449 14.5152L26.4512 14.5109C26.6493 14.4264 26.8183 14.2855 26.9372 14.1058C27.0561 13.9261 27.1197 13.7155 27.1201 13.5C27.1204 13.2836 27.0569 13.0718 26.9375 12.8913C26.8182 12.7107 26.6482 12.5693 26.449 12.4848L3.98699 0.577315C3.65381 0.385987 3.27638 0.285141 2.89217 0.28479Z" fill="white"/>
</svg>
