<svg width="30" height="29" viewBox="0 0 30 29" fill="none" xmlns="http://www.w3.org/2000/svg">
<path d="M15.0968 0.230469C7.22858 0.230469 0.827271 6.63178 0.827271 14.5C0.827271 22.3682 7.22858 28.7695 15.0968 28.7695C22.965 28.7695 29.3663 22.3682 29.3663 14.5C29.3663 6.63178 22.965 0.230469 15.0968 0.230469ZM8.0234 12.4209L9.51171 10.9326L8.0234 9.4443L10.0411 7.42659L13.5471 10.9326L10.0411 14.4386L8.0234 12.4209ZM15.0968 21.6348C12.2429 21.6348 10.8159 20.4932 10.8159 20.4932C10.8159 20.4932 10.8159 15.927 15.0968 15.927C19.3777 15.927 19.3777 20.4932 19.3777 20.4932C19.3777 20.4932 17.9507 21.6348 15.0968 21.6348ZM20.0911 13.073C18.9096 13.073 17.9507 12.1141 17.9507 10.9326C17.9507 9.7511 18.9096 8.79219 20.0911 8.79219C21.2727 8.79219 22.2316 9.7511 22.2316 10.9326C22.2316 12.1141 21.2727 13.073 20.0911 13.073Z" fill="white"/>
</svg>
